<?xml version="1.0" encoding="utf-8"?>
<!-- Generator: Adobe Illustrator 24.3.0, SVG Export Plug-In . SVG Version: 6.00 Build 0)  -->
<svg version="1.1" id="Layer_1" xmlns="http://www.w3.org/2000/svg" xmlns:xlink="http://www.w3.org/1999/xlink" x="0px" y="0px"
	 viewBox="0 0 1280 800" style="enable-background:new 0 0 1280 800;" xml:space="preserve">
<style type="text/css">
	.st0{fill:#FFFFFF;}
	.st1{fill:#F5A3C1;}
	.st2{fill:#E5F5FA;}
	.st3{fill:#96C5C3;}
	.st4{fill:#FFD583;}
	.st5{fill:#F8C0D9;}
	.st6{fill:#B7DFC5;}
	.st7{fill:#CAE7D7;}
	.st8{display:none;fill:#DBBDDB;}
	.st9{fill:#DBBDDB;}
	.st10{display:none;}
	.st11{display:inline;fill:#FFFFFF;}
	.st12{font-family:'Montserrat-Light';}
	.st13{font-size:22.8415px;}
	.st14{letter-spacing:9.12;}
	.st15{font-family:'Montserrat-SemiBold';}
	.st16{font-size:57.8827px;}
	.st17{letter-spacing:7.09;}
	.st18{display:inline;fill:none;}
	.st19{display:inline;}
	.st20{font-size:13.0952px;}
</style>
<g>
	<rect x="-27.22" y="-82.45" class="st0" width="957.68" height="964.91"/>
	<ellipse class="st1" cx="628.55" cy="550.41" rx="111.95" ry="112.8"/>
	<g id="XMLID_1_">
		<g>
			<path class="st2" d="M186.73,770.27c-61.83,0-111.95-50.5-111.95-112.8s50.12-112.79,111.95-112.79
				c61.83,0,111.95,50.5,111.95,112.79S248.56,770.27,186.73,770.27z"/>
		</g>
		<g>
		</g>
	</g>
	<g>
		<ellipse class="st3" cx="445.93" cy="622.01" rx="5.69" ry="5.73"/>
		<ellipse class="st3" cx="484.14" cy="622.01" rx="5.69" ry="5.73"/>
		<ellipse class="st3" cx="522.35" cy="622.01" rx="5.69" ry="5.73"/>
		<ellipse class="st3" cx="560.56" cy="622.01" rx="5.69" ry="5.73"/>
		<ellipse class="st3" cx="598.78" cy="622.01" rx="5.69" ry="5.73"/>
		<ellipse class="st3" cx="636.99" cy="622.01" rx="5.69" ry="5.73"/>
		<ellipse class="st3" cx="445.93" cy="659.69" rx="5.69" ry="5.73"/>
		<ellipse class="st3" cx="484.14" cy="659.69" rx="5.69" ry="5.73"/>
		<ellipse class="st3" cx="522.35" cy="659.69" rx="5.69" ry="5.73"/>
		<ellipse class="st3" cx="560.56" cy="659.69" rx="5.69" ry="5.73"/>
		<ellipse class="st3" cx="598.78" cy="659.69" rx="5.69" ry="5.73"/>
		<ellipse class="st3" cx="636.99" cy="659.69" rx="5.69" ry="5.73"/>
		<ellipse class="st3" cx="445.93" cy="697.37" rx="5.69" ry="5.73"/>
		<ellipse class="st3" cx="484.14" cy="697.37" rx="5.69" ry="5.73"/>
		<ellipse class="st3" cx="522.35" cy="697.37" rx="5.69" ry="5.73"/>
		<ellipse class="st3" cx="560.56" cy="697.37" rx="5.69" ry="5.73"/>
		<ellipse class="st3" cx="598.78" cy="697.37" rx="5.69" ry="5.73"/>
		<ellipse class="st3" cx="636.99" cy="697.37" rx="5.69" ry="5.73"/>
		<ellipse class="st3" cx="445.93" cy="735.05" rx="5.69" ry="5.73"/>
		<ellipse class="st3" cx="484.14" cy="735.05" rx="5.69" ry="5.73"/>
		<ellipse class="st3" cx="522.35" cy="735.05" rx="5.69" ry="5.73"/>
		<ellipse class="st3" cx="560.56" cy="735.05" rx="5.69" ry="5.73"/>
		<ellipse class="st3" cx="598.78" cy="735.05" rx="5.69" ry="5.73"/>
		<ellipse class="st3" cx="636.99" cy="735.05" rx="5.69" ry="5.73"/>
		<ellipse class="st3" cx="445.93" cy="772.73" rx="5.69" ry="5.73"/>
		<ellipse class="st3" cx="484.14" cy="772.73" rx="5.69" ry="5.73"/>
		<ellipse class="st3" cx="522.35" cy="772.73" rx="5.69" ry="5.73"/>
		<ellipse class="st3" cx="560.56" cy="772.73" rx="5.69" ry="5.73"/>
		<ellipse class="st3" cx="598.78" cy="772.73" rx="5.69" ry="5.73"/>
		<ellipse class="st3" cx="636.99" cy="772.73" rx="5.69" ry="5.73"/>
		<ellipse class="st3" cx="445.93" cy="810.41" rx="5.69" ry="5.73"/>
		<ellipse class="st3" cx="484.14" cy="810.41" rx="5.69" ry="5.73"/>
		<ellipse class="st3" cx="522.35" cy="810.41" rx="5.69" ry="5.73"/>
		<ellipse class="st3" cx="560.56" cy="810.41" rx="5.69" ry="5.73"/>
		<ellipse class="st3" cx="598.78" cy="810.41" rx="5.69" ry="5.73"/>
		<ellipse class="st3" cx="636.99" cy="810.41" rx="5.69" ry="5.73"/>
	</g>
	<g>
		<g>
			<path class="st4" d="M547.61,195.64c-16.5,0-32.51-3.18-47.58-9.45c-14.55-6.06-27.63-14.73-38.85-25.78
				c-11.22-11.05-20.04-23.91-26.19-38.23c-6.37-14.83-9.61-30.58-9.61-46.82c0-16.24,3.23-31.99,9.61-46.82
				c6.16-14.32,14.97-27.19,26.19-38.23c11.22-11.05,24.29-19.72,38.85-25.78c15.07-6.27,31.08-9.45,47.58-9.45
				c16.5,0,32.51,3.18,47.58,9.45c14.55,6.06,27.63,14.73,38.85,25.78c11.22,11.05,20.04,23.91,26.19,38.23
				c6.37,14.83,9.61,30.58,9.61,46.82c0,16.24-3.23,31.99-9.61,46.82c-6.16,14.32-14.97,27.19-26.19,38.23
				c-11.22,11.05-24.29,19.72-38.85,25.78C580.12,192.46,564.11,195.64,547.61,195.64z M547.61-37.97c-15.55,0-30.63,3-44.82,8.9
				c-13.71,5.71-26.03,13.88-36.6,24.29C455.61,5.63,447.3,17.75,441.5,31.24c-6,13.97-9.05,28.81-9.05,44.11
				c0,15.3,3.04,30.14,9.05,44.11c5.8,13.49,14.1,25.62,24.68,36.02c10.58,10.41,22.89,18.58,36.6,24.29
				c14.19,5.91,29.28,8.9,44.82,8.9s30.63-3,44.82-8.9c13.71-5.71,26.03-13.88,36.6-24.29c10.58-10.41,18.88-22.53,24.68-36.02
				c6-13.97,9.05-28.81,9.05-44.11c0-15.3-3.04-30.14-9.05-44.11c-5.8-13.49-14.1-25.62-24.68-36.02
				c-10.58-10.41-22.89-18.58-36.6-24.29C578.24-34.98,563.16-37.97,547.61-37.97z"/>
		</g>
		<g>
			<path class="st4" d="M547.61,186.16c-15.2,0-29.94-2.93-43.83-8.71c-13.41-5.58-25.45-13.57-35.79-23.74
				c-10.34-10.17-18.46-22.02-24.13-35.22c-5.87-13.66-8.85-28.17-8.85-43.13c0-14.96,2.98-29.47,8.85-43.13
				C449.54,19.03,457.66,7.18,468-2.99s22.38-18.16,35.79-23.74c13.88-5.78,28.63-8.71,43.83-8.71c15.2,0,29.94,2.93,43.83,8.71
				c13.41,5.58,25.45,13.57,35.79,23.74c10.34,10.17,18.46,22.02,24.13,35.22c5.87,13.66,8.85,28.17,8.85,43.13
				c0,14.96-2.98,29.47-8.85,43.13c-5.67,13.19-13.79,25.04-24.13,35.22c-10.34,10.17-22.38,18.16-35.79,23.74
				C577.55,183.23,562.81,186.16,547.61,186.16z M547.61-28.96c-14.31,0-28.19,2.76-41.26,8.2C493.73-15.51,482.4-7.98,472.66,1.6
				c-9.74,9.58-17.38,20.74-22.72,33.16c-5.53,12.86-8.33,26.52-8.33,40.6c0,14.08,2.8,27.74,8.33,40.6
				c5.34,12.42,12.98,23.58,22.72,33.16c9.74,9.58,21.07,17.1,33.69,22.36c13.07,5.44,26.95,8.2,41.26,8.2
				c14.31,0,28.19-2.76,41.26-8.2c12.62-5.25,23.96-12.78,33.69-22.36c9.74-9.58,17.38-20.74,22.72-33.16
				c5.53-12.86,8.33-26.52,8.33-40.6c0-14.08-2.8-27.74-8.33-40.6c-5.34-12.42-12.98-23.58-22.72-33.16
				c-9.74-9.58-21.07-17.1-33.69-22.36C575.8-26.2,561.92-28.96,547.61-28.96z"/>
		</g>
		<g>
			<path class="st4" d="M547.61,176.68c-13.9,0-27.38-2.68-40.08-7.96c-12.26-5.1-23.27-12.41-32.72-21.71
				c-9.45-9.3-16.88-20.14-22.06-32.21c-5.37-12.49-8.09-25.76-8.09-39.44c0-13.68,2.72-26.95,8.09-39.44
				c5.19-12.07,12.61-22.9,22.06-32.21c9.45-9.3,20.46-16.61,32.72-21.71c12.69-5.28,26.18-7.96,40.08-7.96
				c13.9,0,27.38,2.68,40.08,7.96c12.26,5.1,23.27,12.41,32.72,21.71c9.45,9.3,16.88,20.14,22.06,32.21
				c5.37,12.49,8.09,25.76,8.09,39.44c0,13.68-2.72,26.95-8.09,39.44c-5.19,12.07-12.61,22.9-22.06,32.21
				c-9.45,9.3-20.46,16.61-32.72,21.71C574.99,174,561.51,176.68,547.61,176.68z M547.61-19.94c-13.07,0-25.75,2.52-37.69,7.49
				c-11.53,4.8-21.89,11.67-30.78,20.42c-8.89,8.75-15.88,18.94-20.75,30.29c-5.05,11.75-7.61,24.23-7.61,37.09
				c0,12.87,2.56,25.35,7.61,37.09c4.88,11.35,11.86,21.54,20.75,30.29c8.89,8.75,19.25,15.62,30.78,20.42
				c11.94,4.97,24.62,7.49,37.69,7.49s25.75-2.52,37.69-7.49c11.53-4.8,21.89-11.67,30.78-20.42c8.89-8.75,15.88-18.94,20.75-30.29
				c5.05-11.75,7.61-24.23,7.61-37.09c0-12.87-2.56-25.35-7.61-37.09c-4.88-11.35-11.86-21.54-20.75-30.29
				c-8.89-8.75-19.25-15.62-30.78-20.42C573.36-17.42,560.68-19.94,547.61-19.94z"/>
		</g>
		<g>
			<path class="st4" d="M547.61,167.2c-12.6,0-24.82-2.43-36.33-7.22c-11.11-4.63-21.09-11.25-29.66-19.68
				c-8.57-8.43-15.3-18.25-20-29.19c-4.87-11.32-7.33-23.35-7.33-35.75c0-12.4,2.47-24.42,7.33-35.75
				c4.7-10.94,11.43-20.76,20-29.19s18.55-15.06,29.66-19.68c11.51-4.79,23.73-7.22,36.33-7.22c12.6,0,24.82,2.43,36.33,7.22
				c11.11,4.63,21.09,11.25,29.66,19.68c8.57,8.43,15.3,18.25,20,29.19c4.87,11.32,7.33,23.35,7.33,35.75
				c0,12.4-2.47,24.42-7.33,35.75c-4.7,10.94-11.43,20.76-20,29.19c-8.57,8.43-18.55,15.06-29.66,19.68
				C572.43,164.77,560.21,167.2,547.61,167.2z M547.61-10.92c-11.84,0-23.32,2.28-34.12,6.78c-10.44,4.35-19.81,10.57-27.87,18.49
				s-14.37,17.15-18.79,27.42c-4.57,10.63-6.89,21.93-6.89,33.58c0,11.65,2.32,22.95,6.89,33.58c4.42,10.27,10.74,19.5,18.79,27.42
				c8.05,7.92,17.43,14.15,27.87,18.49c10.81,4.5,22.29,6.78,34.12,6.78c11.84,0,23.32-2.28,34.12-6.78
				c10.44-4.35,19.81-10.57,27.87-18.49c8.05-7.92,14.37-17.15,18.79-27.42c4.57-10.63,6.89-21.93,6.89-33.58
				c0-11.65-2.32-22.95-6.89-33.58c-4.42-10.27-10.74-19.5-18.79-27.42c-8.05-7.92-17.43-14.15-27.87-18.49
				C570.93-8.64,559.45-10.92,547.61-10.92z"/>
		</g>
		<g>
			<path class="st4" d="M547.61,157.71c-11.3,0-22.26-2.18-32.58-6.47c-9.97-4.15-18.92-10.09-26.6-17.65
				c-7.68-7.56-13.72-16.37-17.93-26.18c-4.36-10.16-6.58-20.94-6.58-32.06s2.21-21.9,6.58-32.06c4.22-9.81,10.25-18.61,17.93-26.18
				c7.68-7.56,16.63-13.5,26.6-17.65C525.35-4.82,536.31-7,547.61-7s22.26,2.18,32.58,6.47c9.97,4.15,18.91,10.09,26.6,17.65
				c7.68,7.56,13.72,16.37,17.93,26.18c4.36,10.16,6.58,20.94,6.58,32.06s-2.21,21.9-6.58,32.06c-4.22,9.81-10.25,18.61-17.93,26.18
				c-7.68,7.56-16.63,13.5-26.6,17.65C569.87,155.54,558.91,157.71,547.61,157.71z M547.61-1.9c-20.97,0-40.68,8.04-55.51,22.63
				c-14.83,14.59-22.99,33.99-22.99,54.63c0,20.64,8.17,40.04,22.99,54.63c14.83,14.59,34.54,22.63,55.51,22.63
				c20.97,0,40.68-8.04,55.51-22.63c14.83-14.59,22.99-33.99,22.99-54.63c0-20.64-8.17-40.04-22.99-54.63
				C588.29,6.13,568.58-1.9,547.61-1.9z"/>
		</g>
		<g>
			<path class="st4" d="M547.61,148.23c-19.78,0-38.38-7.58-52.36-21.35c-13.99-13.76-21.69-32.07-21.69-51.53
				c0-19.47,7.7-37.77,21.69-51.53c13.99-13.76,32.58-21.35,52.36-21.35c19.78,0,38.38,7.58,52.36,21.35
				c13.99,13.76,21.69,32.07,21.69,51.53c0,19.47-7.7,37.77-21.69,51.53C585.99,140.65,567.39,148.23,547.61,148.23z M547.61,7.12
				c-18.52,0-35.93,7.1-49.03,19.99c-13.1,12.89-20.31,30.03-20.31,48.25c0,18.23,7.21,35.36,20.31,48.25
				c13.1,12.89,30.51,19.99,49.03,19.99c18.52,0,35.93-7.1,49.03-19.99c13.1-12.89,20.31-30.03,20.31-48.25
				c0-18.23-7.21-35.36-20.31-48.25C583.55,14.21,566.13,7.12,547.61,7.12z"/>
		</g>
		<g>
			<path class="st4" d="M547.61,138.75c-17.21,0-33.38-6.59-45.55-18.57c-12.17-11.97-18.87-27.89-18.87-44.83
				c0-16.93,6.7-32.85,18.87-44.83c12.17-11.97,28.34-18.57,45.55-18.57c17.21,0,33.38,6.59,45.55,18.57
				c12.17,11.97,18.87,27.89,18.87,44.83c0,16.93-6.7,32.85-18.87,44.83C580.99,132.16,564.82,138.75,547.61,138.75z M547.61,16.13
				c-16.07,0-31.19,6.16-42.55,17.35c-11.37,11.19-17.63,26.06-17.63,41.88c0,15.82,6.26,30.69,17.63,41.88s26.48,17.35,42.55,17.35
				c16.07,0,31.19-6.16,42.55-17.35c11.37-11.19,17.63-26.06,17.63-41.88c0-15.82-6.26-30.69-17.63-41.88
				C578.8,22.29,563.68,16.13,547.61,16.13z"/>
		</g>
		<g>
			<path class="st4" d="M547.61,129.27c-14.63,0-28.39-5.61-38.74-15.79c-10.35-10.18-16.05-23.72-16.05-38.12
				c0-14.4,5.7-27.94,16.05-38.12c10.35-10.18,24.1-15.79,38.74-15.79c14.63,0,28.39,5.61,38.74,15.79
				c10.35,10.18,16.05,23.72,16.05,38.12c0,14.4-5.7,27.94-16.05,38.12C576,123.66,562.24,129.27,547.61,129.27z M547.61,25.15
				c-13.63,0-26.44,5.22-36.07,14.7c-9.64,9.48-14.94,22.09-14.94,35.5c0,13.41,5.31,26.02,14.94,35.5
				c9.64,9.48,22.45,14.7,36.07,14.7c13.63,0,26.44-5.22,36.07-14.7s14.94-22.09,14.94-35.5c0-13.41-5.31-26.02-14.94-35.5
				C574.05,30.37,561.24,25.15,547.61,25.15z"/>
		</g>
		<g>
			<path class="st4" d="M547.61,119.79c-24.9,0-45.15-19.93-45.15-44.43c0-24.5,20.25-44.43,45.15-44.43
				c24.9,0,45.15,19.93,45.15,44.43C592.76,99.86,572.51,119.79,547.61,119.79z M547.61,34.17c-23.08,0-41.85,18.48-41.85,41.19
				c0,22.71,18.77,41.19,41.85,41.19c23.08,0,41.85-18.48,41.85-41.19C589.46,52.65,570.69,34.17,547.61,34.17z"/>
		</g>
		<g>
			<path class="st4" d="M547.61,110.31c-19.58,0-35.51-15.68-35.51-34.95c0-19.27,15.93-34.95,35.51-34.95
				c19.58,0,35.51,15.68,35.51,34.95C583.13,94.63,567.19,110.31,547.61,110.31z M547.61,43.19c-18.02,0-32.69,14.43-32.69,32.17
				s14.66,32.17,32.69,32.17c18.02,0,32.69-14.43,32.69-32.17S565.64,43.19,547.61,43.19z"/>
		</g>
		<g>
			<path class="st4" d="M547.61,100.83c-14.27,0-25.88-11.43-25.88-25.47c0-14.04,11.61-25.47,25.88-25.47
				c14.27,0,25.88,11.43,25.88,25.47C573.49,89.4,561.88,100.83,547.61,100.83z M547.61,52.2c-12.97,0-23.53,10.39-23.53,23.15
				c0,12.77,10.55,23.15,23.53,23.15c12.97,0,23.53-10.39,23.53-23.15C571.14,62.59,560.58,52.2,547.61,52.2z"/>
		</g>
	</g>
	<polygon class="st5" points="190.97,397.84 151.81,397.84 502.66,44.34 541.83,44.34 	"/>
	<polygon class="st4" points="288.81,803.51 249.65,803.51 600.5,450.01 639.67,450.01 	"/>
	<polygon class="st3" points="12.74,306.02 -26.43,306.02 324.42,-47.48 363.59,-47.48 	"/>
	<g>
		<ellipse class="st1" cx="60.02" cy="13.96" rx="5.69" ry="5.73"/>
		<ellipse class="st1" cx="98.23" cy="13.96" rx="5.69" ry="5.73"/>
		<ellipse class="st1" cx="136.44" cy="13.96" rx="5.69" ry="5.73"/>
		<ellipse class="st1" cx="174.65" cy="13.96" rx="5.69" ry="5.73"/>
		<ellipse class="st1" cx="212.87" cy="13.96" rx="5.69" ry="5.73"/>
		<ellipse class="st1" cx="251.08" cy="13.96" rx="5.69" ry="5.73"/>
		<ellipse class="st1" cx="60.02" cy="51.64" rx="5.69" ry="5.73"/>
		<ellipse class="st1" cx="98.23" cy="51.64" rx="5.69" ry="5.73"/>
		<ellipse class="st1" cx="136.44" cy="51.64" rx="5.69" ry="5.73"/>
		<ellipse class="st1" cx="174.65" cy="51.64" rx="5.69" ry="5.73"/>
		<ellipse class="st1" cx="212.87" cy="51.64" rx="5.69" ry="5.73"/>
		<ellipse class="st1" cx="251.08" cy="51.64" rx="5.69" ry="5.73"/>
		<ellipse class="st1" cx="60.02" cy="89.33" rx="5.69" ry="5.73"/>
		<ellipse class="st1" cx="98.23" cy="89.33" rx="5.69" ry="5.73"/>
		<ellipse class="st1" cx="136.44" cy="89.33" rx="5.69" ry="5.73"/>
		<ellipse class="st1" cx="174.65" cy="89.33" rx="5.69" ry="5.73"/>
		<ellipse class="st1" cx="212.87" cy="89.33" rx="5.69" ry="5.73"/>
		<ellipse class="st1" cx="251.08" cy="89.33" rx="5.69" ry="5.73"/>
		<ellipse class="st1" cx="60.02" cy="127.01" rx="5.69" ry="5.73"/>
		<ellipse class="st1" cx="98.23" cy="127.01" rx="5.69" ry="5.73"/>
		<ellipse class="st1" cx="136.44" cy="127.01" rx="5.69" ry="5.73"/>
		<ellipse class="st1" cx="174.65" cy="127.01" rx="5.69" ry="5.73"/>
		<ellipse class="st1" cx="212.87" cy="127.01" rx="5.69" ry="5.73"/>
		<ellipse class="st1" cx="251.08" cy="127.01" rx="5.69" ry="5.73"/>
		<ellipse class="st1" cx="60.02" cy="164.69" rx="5.69" ry="5.73"/>
		<ellipse class="st1" cx="98.23" cy="164.69" rx="5.69" ry="5.73"/>
		<ellipse class="st1" cx="136.44" cy="164.69" rx="5.69" ry="5.73"/>
		<ellipse class="st1" cx="174.65" cy="164.69" rx="5.69" ry="5.73"/>
		<ellipse class="st1" cx="212.87" cy="164.69" rx="5.69" ry="5.73"/>
		<ellipse class="st1" cx="251.08" cy="164.69" rx="5.69" ry="5.73"/>
		<ellipse class="st1" cx="60.02" cy="202.37" rx="5.69" ry="5.73"/>
		<ellipse class="st1" cx="98.23" cy="202.37" rx="5.69" ry="5.73"/>
		<ellipse class="st1" cx="136.44" cy="202.37" rx="5.69" ry="5.73"/>
		<ellipse class="st1" cx="174.65" cy="202.37" rx="5.69" ry="5.73"/>
		<ellipse class="st1" cx="212.87" cy="202.37" rx="5.69" ry="5.73"/>
		<ellipse class="st1" cx="251.08" cy="202.37" rx="5.69" ry="5.73"/>
	</g>
	<polygon class="st5" points="38.53,729.14 -0.63,729.14 350.22,375.65 389.39,375.65 	"/>
	<g id="XMLID_2_">
		<g>
			<path class="st6" d="M305.06,161.08c85.83,0,155.41,70.99,155.41,158.57c0,87.58-69.58,158.58-155.41,158.58
				s-155.41-70.99-155.41-158.58C149.65,232.08,219.23,161.08,305.06,161.08z"/>
		</g>
		<g>
		</g>
	</g>
	<polygon class="st7" points="612.53,202.72 711.99,102.51 672.82,102.51 573.37,202.72 	"/>
	<polygon class="st3" points="896.44,491.59 935.61,491.59 584.76,845.09 545.59,845.09 	"/>
	<polygon class="st4" points="335.21,541.91 235.75,642.12 274.91,642.12 374.37,541.91 	"/>
	<ellipse class="st8" cx="456.14" cy="400" rx="200.58" ry="203.28"/>
	<polygon class="st4" points="476.92,212.51 375.77,314.43 414.94,314.43 516.09,212.51 	"/>
	<polygon class="st4" points="102.29,570.38 141.92,530.45 102.75,530.45 63.12,570.38 	"/>
	<polygon class="st5" points="74.31,878.25 173.77,778.04 134.6,778.04 35.15,878.25 	"/>
	<polygon class="st7" points="806.69,236.26 906.14,136.05 866.98,136.05 767.52,236.26 	"/>
	<polygon class="st7" points="404.88,43.1 504.34,-57.11 465.17,-57.11 365.71,43.1 	"/>
	<g>
		<ellipse class="st0" cx="586.93" cy="492.18" rx="5.02" ry="5.05"/>
		<ellipse class="st0" cx="620.6" cy="492.18" rx="5.02" ry="5.05"/>
		<ellipse class="st0" cx="654.28" cy="492.18" rx="5.02" ry="5.05"/>
		<ellipse class="st0" cx="687.96" cy="492.18" rx="5.02" ry="5.05"/>
		<ellipse class="st0" cx="721.64" cy="492.18" rx="5.02" ry="5.05"/>
		<ellipse class="st0" cx="620.6" cy="525.39" rx="5.02" ry="5.05"/>
		<ellipse class="st0" cx="654.28" cy="525.39" rx="5.02" ry="5.05"/>
		<ellipse class="st0" cx="687.96" cy="525.39" rx="5.02" ry="5.05"/>
		<ellipse class="st0" cx="721.64" cy="525.39" rx="5.02" ry="5.05"/>
		<ellipse class="st0" cx="654.28" cy="558.6" rx="5.02" ry="5.05"/>
		<ellipse class="st0" cx="687.96" cy="558.6" rx="5.02" ry="5.05"/>
		<ellipse class="st0" cx="721.64" cy="558.6" rx="5.02" ry="5.05"/>
		<ellipse class="st0" cx="687.96" cy="591.81" rx="5.02" ry="5.05"/>
		<ellipse class="st0" cx="721.64" cy="591.81" rx="5.02" ry="5.05"/>
		<ellipse class="st0" cx="721.64" cy="625.02" rx="5.02" ry="5.05"/>
	</g>
	<g>
		<ellipse class="st0" cx="87.97" cy="563.66" rx="5.02" ry="5.05"/>
		<ellipse class="st0" cx="121.65" cy="563.66" rx="5.02" ry="5.05"/>
		<ellipse class="st0" cx="155.32" cy="563.66" rx="5.02" ry="5.05"/>
		<ellipse class="st0" cx="189" cy="563.66" rx="5.02" ry="5.05"/>
		<ellipse class="st0" cx="222.68" cy="563.66" rx="5.02" ry="5.05"/>
		<ellipse class="st0" cx="121.65" cy="596.87" rx="5.02" ry="5.05"/>
		<ellipse class="st0" cx="155.32" cy="596.87" rx="5.02" ry="5.05"/>
		<ellipse class="st0" cx="189" cy="596.87" rx="5.02" ry="5.05"/>
		<ellipse class="st0" cx="222.68" cy="596.87" rx="5.02" ry="5.05"/>
		<ellipse class="st0" cx="155.32" cy="630.08" rx="5.02" ry="5.05"/>
		<ellipse class="st0" cx="189" cy="630.08" rx="5.02" ry="5.05"/>
		<ellipse class="st0" cx="222.68" cy="630.08" rx="5.02" ry="5.05"/>
		<ellipse class="st0" cx="189" cy="663.28" rx="5.02" ry="5.05"/>
		<ellipse class="st0" cx="222.68" cy="663.28" rx="5.02" ry="5.05"/>
		<ellipse class="st0" cx="222.68" cy="696.49" rx="5.02" ry="5.05"/>
	</g>
	<polygon class="st4" points="829.43,3.21 785.87,47.09 825.04,47.09 868.59,3.21 	"/>
	<polygon class="st9" points="599.59,184.87 594.27,184.87 594.27,179.52 589.61,179.52 589.61,184.87 584.3,184.87 584.3,189.56 
		589.61,189.56 589.61,194.92 594.27,194.92 594.27,189.56 599.59,189.56 	"/>
	<polygon class="st9" points="597.11,345.69 591.79,345.69 591.79,340.34 587.14,340.34 587.14,345.69 581.82,345.69 581.82,350.38 
		587.14,350.38 587.14,355.74 591.79,355.74 591.79,350.38 597.11,350.38 	"/>
	<polygon class="st3" points="349.45,611.59 345.69,607.8 349.45,604.01 346.16,600.69 342.4,604.48 338.64,600.69 335.35,604.01 
		339.11,607.8 335.35,611.59 338.64,614.9 342.4,611.11 346.16,614.9 	"/>
	<polygon class="st9" points="70.76,479.56 65.45,479.56 65.45,474.21 60.79,474.21 60.79,479.56 55.48,479.56 55.48,484.25 
		60.79,484.25 60.79,489.61 65.45,489.61 65.45,484.25 70.76,484.25 	"/>
	<polygon class="st9" points="705.55,309.61 700.23,309.61 700.23,304.25 695.58,304.25 695.58,309.61 690.26,309.61 690.26,314.3 
		695.58,314.3 695.58,319.66 700.23,319.66 700.23,314.3 705.55,314.3 	"/>
	<polygon class="st4" points="801.16,216 795.84,216 795.84,210.64 791.19,210.64 791.19,216 785.87,216 785.87,220.69 
		791.19,220.69 791.19,226.05 795.84,226.05 795.84,220.69 801.16,220.69 	"/>
	<polygon class="st1" points="333.36,732.71 328.04,732.71 328.04,727.35 323.39,727.35 323.39,732.71 318.07,732.71 318.07,737.4 
		323.39,737.4 323.39,742.75 328.04,742.75 328.04,737.4 333.36,737.4 	"/>
	<g class="st10">
		<text transform="matrix(0.9867 0 0 1 337.9167 375.167)" class="st11 st12 st13 st14">BACKGROUND</text>
		<text transform="matrix(0.9867 0 0 1 394.6789 535.499)" class="st11 st12 st13">READ MORE</text>
		<text transform="matrix(0.9867 0 0 1 343.7238 340.3154)" class="st11 st15 st16 st17">PASTEL</text>
		<rect x="306.86" y="411.16" class="st18" width="287.89" height="79.97"/>
		<text transform="matrix(0.9867 0 0 1 310.0104 420.4541)" class="st19"><tspan x="0" y="0" class="st0 st12 st20">Lorem ipsum dolor sit amet, consectetuer adipiscing </tspan><tspan x="4.26" y="15.71" class="st0 st12 st20">elit, sed diam nonummy nibh euismod tincidunt ut </tspan><tspan x="2.66" y="31.43" class="st0 st12 st20">laoreet dolore magna aliquam erat volutpat. Ut wisi </tspan><tspan x="42.96" y="47.14" class="st0 st12 st20">enim ad minim veniam, quis nostrud </tspan></text>
	</g>
	<polygon class="st3" points="815.26,25.23 811.5,21.44 815.26,17.65 811.97,14.34 808.21,18.13 804.45,14.34 801.16,17.65 
		804.92,21.44 801.16,25.23 804.45,28.55 808.21,24.76 811.97,28.55 	"/>
</g>
<g>
	
		<rect x="924.54" y="-57.11" transform="matrix(-1 -8.979274e-11 8.979274e-11 -1 2806.7556 850.6948)" class="st0" width="957.68" height="964.91"/>
	<ellipse class="st1" cx="1226.45" cy="274.93" rx="111.95" ry="112.8"/>
	<g id="XMLID_4_">
		<g>
			<path class="st2" d="M1668.26,280.67c-61.83,0-111.95-50.5-111.95-112.8c0-62.3,50.12-112.79,111.95-112.79
				c61.83,0,111.95,50.5,111.95,112.79C1780.22,230.17,1730.1,280.67,1668.26,280.67z"/>
		</g>
		<g>
		</g>
	</g>
	<g>
		<ellipse class="st3" cx="1409.07" cy="203.34" rx="5.69" ry="5.73"/>
		<ellipse class="st3" cx="1370.86" cy="203.34" rx="5.69" ry="5.73"/>
		<ellipse class="st3" cx="1332.65" cy="203.34" rx="5.69" ry="5.73"/>
		<ellipse class="st3" cx="1294.43" cy="203.34" rx="5.69" ry="5.73"/>
		<ellipse class="st3" cx="1256.22" cy="203.34" rx="5.69" ry="5.73"/>
		<ellipse class="st3" cx="1218.01" cy="203.34" rx="5.69" ry="5.73"/>
		<ellipse class="st3" cx="1409.07" cy="165.66" rx="5.69" ry="5.73"/>
		<ellipse class="st3" cx="1370.86" cy="165.66" rx="5.69" ry="5.73"/>
		<ellipse class="st3" cx="1332.65" cy="165.66" rx="5.69" ry="5.73"/>
		<ellipse class="st3" cx="1294.43" cy="165.66" rx="5.69" ry="5.73"/>
		<ellipse class="st3" cx="1256.22" cy="165.66" rx="5.69" ry="5.73"/>
		<ellipse class="st3" cx="1218.01" cy="165.66" rx="5.69" ry="5.73"/>
		<ellipse class="st3" cx="1409.07" cy="127.98" rx="5.69" ry="5.73"/>
		<ellipse class="st3" cx="1370.86" cy="127.98" rx="5.69" ry="5.73"/>
		<ellipse class="st3" cx="1332.65" cy="127.98" rx="5.69" ry="5.73"/>
		<ellipse class="st3" cx="1294.43" cy="127.98" rx="5.69" ry="5.73"/>
		<ellipse class="st3" cx="1256.22" cy="127.98" rx="5.69" ry="5.73"/>
		<ellipse class="st3" cx="1218.01" cy="127.98" rx="5.69" ry="5.73"/>
		<ellipse class="st3" cx="1409.07" cy="90.3" rx="5.69" ry="5.73"/>
		<ellipse class="st3" cx="1370.86" cy="90.3" rx="5.69" ry="5.73"/>
		<ellipse class="st3" cx="1332.65" cy="90.3" rx="5.69" ry="5.73"/>
		<ellipse class="st3" cx="1294.43" cy="90.3" rx="5.69" ry="5.73"/>
		<ellipse class="st3" cx="1256.22" cy="90.3" rx="5.69" ry="5.73"/>
		<ellipse class="st3" cx="1218.01" cy="90.3" rx="5.69" ry="5.73"/>
		<ellipse class="st3" cx="1409.07" cy="52.62" rx="5.69" ry="5.73"/>
		<ellipse class="st3" cx="1370.86" cy="52.62" rx="5.69" ry="5.73"/>
		<ellipse class="st3" cx="1332.65" cy="52.62" rx="5.69" ry="5.73"/>
		<ellipse class="st3" cx="1294.43" cy="52.62" rx="5.69" ry="5.73"/>
		<ellipse class="st3" cx="1256.22" cy="52.62" rx="5.69" ry="5.73"/>
		<ellipse class="st3" cx="1218.01" cy="52.62" rx="5.69" ry="5.73"/>
		<ellipse class="st3" cx="1409.07" cy="14.93" rx="5.69" ry="5.73"/>
		<ellipse class="st3" cx="1370.86" cy="14.93" rx="5.69" ry="5.73"/>
		<ellipse class="st3" cx="1332.65" cy="14.93" rx="5.69" ry="5.73"/>
		<ellipse class="st3" cx="1294.43" cy="14.93" rx="5.69" ry="5.73"/>
		<ellipse class="st3" cx="1256.22" cy="14.93" rx="5.69" ry="5.73"/>
		<ellipse class="st3" cx="1218.01" cy="14.93" rx="5.69" ry="5.73"/>
	</g>
	<g>
		<g>
			<path class="st4" d="M1307.39,629.71c16.5,0,32.51,3.18,47.58,9.45c14.55,6.06,27.63,14.73,38.85,25.78
				c11.22,11.05,20.04,23.91,26.19,38.23c6.37,14.83,9.61,30.58,9.61,46.82c0,16.24-3.23,31.99-9.61,46.82
				c-6.16,14.32-14.97,27.19-26.19,38.23c-11.22,11.05-24.29,19.72-38.85,25.78c-15.07,6.27-31.08,9.45-47.58,9.45
				s-32.51-3.18-47.58-9.45c-14.55-6.06-27.63-14.73-38.85-25.78c-11.22-11.05-20.04-23.91-26.19-38.23
				c-6.37-14.83-9.61-30.58-9.61-46.82c0-16.24,3.23-31.99,9.61-46.82c6.16-14.32,14.97-27.19,26.19-38.23
				c11.22-11.05,24.29-19.72,38.85-25.78C1274.88,632.89,1290.89,629.71,1307.39,629.71z M1307.39,863.32c15.55,0,30.63-3,44.82-8.9
				c13.71-5.71,26.03-13.88,36.6-24.29c10.58-10.41,18.88-22.53,24.68-36.02c6-13.97,9.05-28.81,9.05-44.11
				c0-15.3-3.04-30.14-9.05-44.11c-5.8-13.49-14.1-25.62-24.68-36.02c-10.58-10.41-22.89-18.58-36.6-24.29
				c-14.19-5.91-29.28-8.9-44.82-8.9s-30.63,3-44.82,8.9c-13.71,5.71-26.03,13.88-36.6,24.29c-10.58,10.41-18.88,22.53-24.68,36.02
				c-6,13.97-9.05,28.81-9.05,44.11c0,15.3,3.04,30.14,9.05,44.11c5.8,13.49,14.1,25.62,24.68,36.02
				c10.58,10.41,22.89,18.58,36.6,24.29C1276.76,860.33,1291.84,863.32,1307.39,863.32z"/>
		</g>
		<g>
			<path class="st4" d="M1307.39,639.19c15.2,0,29.94,2.93,43.83,8.71c13.41,5.58,25.45,13.57,35.79,23.74
				c10.34,10.17,18.46,22.02,24.13,35.22c5.87,13.66,8.85,28.17,8.85,43.13c0,14.96-2.98,29.47-8.85,43.13
				c-5.67,13.19-13.79,25.04-24.13,35.22c-10.34,10.17-22.38,18.16-35.79,23.74c-13.88,5.78-28.63,8.71-43.83,8.71
				c-15.2,0-29.94-2.93-43.83-8.71c-13.41-5.58-25.45-13.57-35.79-23.74c-10.34-10.17-18.46-22.02-24.13-35.22
				c-5.87-13.66-8.85-28.17-8.85-43.13c0-14.96,2.98-29.47,8.85-43.13c5.67-13.19,13.79-25.04,24.13-35.22
				c10.34-10.17,22.38-18.16,35.79-23.74C1277.44,642.12,1292.19,639.19,1307.39,639.19z M1307.39,854.3
				c14.31,0,28.19-2.76,41.26-8.2c12.62-5.25,23.96-12.78,33.69-22.36c9.74-9.58,17.38-20.74,22.72-33.16
				c5.53-12.86,8.33-26.52,8.33-40.6c0-14.08-2.8-27.74-8.33-40.6c-5.34-12.42-12.98-23.58-22.72-33.16
				c-9.74-9.58-21.07-17.1-33.69-22.36c-13.07-5.44-26.95-8.2-41.26-8.2c-14.31,0-28.19,2.76-41.26,8.2
				c-12.62,5.25-23.96,12.78-33.69,22.36c-9.74,9.58-17.38,20.74-22.72,33.16c-5.53,12.86-8.33,26.52-8.33,40.6
				c0,14.08,2.8,27.74,8.33,40.6c5.34,12.42,12.98,23.58,22.72,33.16c9.74,9.58,21.07,17.1,33.69,22.36
				C1279.2,851.55,1293.08,854.3,1307.39,854.3z"/>
		</g>
		<g>
			<path class="st4" d="M1307.39,648.67c13.9,0,27.38,2.68,40.08,7.96c12.26,5.1,23.27,12.41,32.72,21.71
				c9.45,9.3,16.88,20.14,22.06,32.21c5.37,12.49,8.09,25.76,8.09,39.44c0,13.68-2.72,26.95-8.09,39.44
				c-5.19,12.07-12.61,22.9-22.06,32.21c-9.45,9.3-20.46,16.61-32.72,21.71c-12.69,5.28-26.18,7.96-40.08,7.96
				s-27.38-2.68-40.08-7.96c-12.26-5.1-23.27-12.41-32.72-21.71c-9.45-9.3-16.88-20.14-22.06-32.21
				c-5.37-12.49-8.09-25.76-8.09-39.44c0-13.68,2.72-26.95,8.09-39.44c5.19-12.07,12.61-22.9,22.06-32.21
				c9.45-9.3,20.46-16.61,32.72-21.71C1280.01,651.35,1293.49,648.67,1307.39,648.67z M1307.39,845.29
				c13.07,0,25.75-2.52,37.69-7.49c11.53-4.8,21.89-11.67,30.78-20.42c8.89-8.75,15.88-18.94,20.75-30.29
				c5.05-11.75,7.61-24.23,7.61-37.09c0-12.87-2.56-25.35-7.61-37.09c-4.88-11.35-11.86-21.54-20.75-30.29
				c-8.89-8.75-19.25-15.62-30.78-20.42c-11.94-4.97-24.62-7.49-37.69-7.49c-13.07,0-25.75,2.52-37.69,7.49
				c-11.53,4.8-21.89,11.67-30.78,20.42c-8.89,8.75-15.88,18.94-20.75,30.29c-5.05,11.75-7.61,24.23-7.61,37.09
				c0,12.87,2.56,25.35,7.61,37.09c4.88,11.35,11.86,21.54,20.75,30.29c8.89,8.75,19.25,15.62,30.78,20.42
				C1281.63,842.77,1294.31,845.29,1307.39,845.29z"/>
		</g>
		<g>
			<path class="st4" d="M1307.39,658.15c12.6,0,24.82,2.43,36.33,7.22c11.11,4.63,21.09,11.25,29.66,19.68
				c8.57,8.43,15.3,18.25,20,29.19c4.87,11.32,7.33,23.35,7.33,35.75c0,12.4-2.47,24.42-7.33,35.75c-4.7,10.94-11.43,20.76-20,29.19
				c-8.57,8.43-18.55,15.06-29.66,19.68c-11.51,4.79-23.73,7.22-36.33,7.22c-12.6,0-24.82-2.43-36.33-7.22
				c-11.11-4.63-21.09-11.25-29.66-19.68c-8.57-8.43-15.3-18.25-20-29.19c-4.87-11.32-7.33-23.35-7.33-35.75
				c0-12.4,2.47-24.42,7.33-35.75c4.7-10.94,11.43-20.76,20-29.19c8.57-8.43,18.55-15.06,29.66-19.68
				C1282.57,660.58,1294.79,658.15,1307.39,658.15z M1307.39,836.27c11.84,0,23.32-2.28,34.12-6.78
				c10.44-4.35,19.81-10.57,27.87-18.49c8.05-7.92,14.37-17.15,18.79-27.42c4.57-10.63,6.89-21.93,6.89-33.58
				c0-11.65-2.32-22.95-6.89-33.58c-4.42-10.27-10.74-19.5-18.79-27.42c-8.05-7.92-17.43-14.15-27.87-18.49
				c-10.81-4.5-22.29-6.78-34.12-6.78c-11.84,0-23.32,2.28-34.12,6.78c-10.44,4.35-19.81,10.57-27.87,18.49
				c-8.05,7.92-14.37,17.15-18.79,27.42c-4.57,10.63-6.89,21.93-6.89,33.58c0,11.65,2.32,22.95,6.89,33.58
				c4.42,10.27,10.74,19.5,18.79,27.42c8.05,7.92,17.43,14.15,27.87,18.49C1284.07,833.99,1295.55,836.27,1307.39,836.27z"/>
		</g>
		<g>
			<path class="st4" d="M1307.39,667.63c11.3,0,22.26,2.18,32.58,6.47c9.97,4.15,18.92,10.09,26.6,17.65
				c7.68,7.56,13.72,16.37,17.93,26.18c4.36,10.16,6.58,20.94,6.58,32.06c0,11.12-2.21,21.9-6.58,32.06
				c-4.22,9.81-10.25,18.61-17.93,26.18c-7.68,7.56-16.63,13.5-26.6,17.65c-10.32,4.3-21.28,6.47-32.58,6.47s-22.26-2.18-32.58-6.47
				c-9.97-4.15-18.91-10.09-26.6-17.65c-7.68-7.56-13.72-16.37-17.93-26.18c-4.36-10.16-6.58-20.94-6.58-32.06
				c0-11.12,2.21-21.9,6.58-32.06c4.22-9.81,10.25-18.61,17.93-26.18c7.68-7.56,16.63-13.5,26.6-17.65
				C1285.13,669.81,1296.09,667.63,1307.39,667.63z M1307.39,827.25c20.97,0,40.68-8.04,55.51-22.63
				c14.83-14.59,22.99-33.99,22.99-54.63c0-20.64-8.17-40.04-22.99-54.63c-14.83-14.59-34.54-22.63-55.51-22.63
				s-40.68,8.04-55.51,22.63c-14.83,14.59-22.99,33.99-22.99,54.63c0,20.64,8.17,40.04,22.99,54.63
				C1266.7,819.21,1286.42,827.25,1307.39,827.25z"/>
		</g>
		<g>
			<path class="st4" d="M1307.39,677.11c19.78,0,38.38,7.58,52.36,21.35c13.99,13.76,21.69,32.07,21.69,51.53
				c0,19.47-7.7,37.77-21.69,51.53c-13.99,13.76-32.58,21.35-52.36,21.35c-19.78,0-38.38-7.58-52.36-21.35
				c-13.99-13.76-21.69-32.07-21.69-51.53c0-19.47,7.7-37.77,21.69-51.53C1269.01,684.7,1287.61,677.11,1307.39,677.11z
				 M1307.39,818.23c18.52,0,35.93-7.1,49.03-19.99c13.1-12.89,20.31-30.03,20.31-48.25c0-18.23-7.21-35.36-20.31-48.25
				c-13.1-12.89-30.51-19.99-49.03-19.99c-18.52,0-35.93,7.1-49.03,19.99c-13.1,12.89-20.31,30.03-20.31,48.25
				c0,18.23,7.21,35.36,20.31,48.25C1271.45,811.13,1288.86,818.23,1307.39,818.23z"/>
		</g>
		<g>
			<path class="st4" d="M1307.39,686.6c17.21,0,33.38,6.59,45.55,18.57c12.17,11.97,18.87,27.89,18.87,44.83
				c0,16.93-6.7,32.85-18.87,44.83c-12.17,11.97-28.34,18.57-45.55,18.57c-17.21,0-33.38-6.59-45.55-18.57
				c-12.17-11.97-18.87-27.89-18.87-44.83c0-16.93,6.7-32.85,18.87-44.83C1274,693.19,1290.18,686.6,1307.39,686.6z M1307.39,809.21
				c16.07,0,31.19-6.16,42.55-17.35s17.63-26.06,17.63-41.88c0-15.82-6.26-30.69-17.63-41.88s-26.48-17.35-42.55-17.35
				c-16.07,0-31.19,6.16-42.55,17.35s-17.63,26.06-17.63,41.88c0,15.82,6.26,30.69,17.63,41.88
				C1276.2,803.05,1291.31,809.21,1307.39,809.21z"/>
		</g>
		<g>
			<path class="st4" d="M1307.39,696.08c14.63,0,28.39,5.61,38.74,15.79c10.35,10.18,16.05,23.72,16.05,38.12
				c0,14.4-5.7,27.94-16.05,38.12c-10.35,10.18-24.1,15.79-38.74,15.79c-14.63,0-28.39-5.61-38.74-15.79
				c-10.35-10.18-16.05-23.72-16.05-38.12c0-14.4,5.7-27.94,16.05-38.12C1279,701.69,1292.75,696.08,1307.39,696.08z M1307.39,800.2
				c13.63,0,26.44-5.22,36.07-14.7c9.64-9.48,14.94-22.09,14.94-35.5c0-13.41-5.31-26.02-14.94-35.5
				c-9.64-9.48-22.45-14.7-36.07-14.7c-13.63,0-26.44,5.22-36.07,14.7c-9.64,9.48-14.94,22.09-14.94,35.5
				c0,13.41,5.31,26.02,14.94,35.5C1280.95,794.97,1293.76,800.2,1307.39,800.2z"/>
		</g>
		<g>
			<path class="st4" d="M1307.39,705.56c24.9,0,45.15,19.93,45.15,44.43c0,24.5-20.25,44.43-45.15,44.43s-45.15-19.93-45.15-44.43
				C1262.24,725.49,1282.49,705.56,1307.39,705.56z M1307.39,791.18c23.08,0,41.85-18.48,41.85-41.19
				c0-22.71-18.77-41.19-41.85-41.19s-41.85,18.48-41.85,41.19C1265.53,772.7,1284.31,791.18,1307.39,791.18z"/>
		</g>
		<g>
			<path class="st4" d="M1307.39,715.04c19.58,0,35.51,15.68,35.51,34.95c0,19.27-15.93,34.95-35.51,34.95s-35.51-15.68-35.51-34.95
				C1271.87,730.72,1287.8,715.04,1307.39,715.04z M1307.39,782.16c18.02,0,32.69-14.43,32.69-32.17
				c0-17.74-14.66-32.17-32.69-32.17s-32.69,14.43-32.69,32.17C1274.7,767.73,1289.36,782.16,1307.39,782.16z"/>
		</g>
		<g>
			<path class="st4" d="M1307.39,724.52c14.27,0,25.88,11.43,25.88,25.47c0,14.04-11.61,25.47-25.88,25.47s-25.88-11.43-25.88-25.47
				C1281.51,735.95,1293.12,724.52,1307.39,724.52z M1307.39,773.14c12.97,0,23.53-10.39,23.53-23.15
				c0-12.77-10.55-23.15-23.53-23.15c-12.97,0-23.53,10.39-23.53,23.15C1283.86,762.76,1294.41,773.14,1307.39,773.14z"/>
		</g>
	</g>
	<polygon class="st5" points="1664.02,427.51 1703.19,427.51 1352.34,781.01 1313.17,781.01 	"/>
	<polygon class="st4" points="1566.18,21.84 1605.35,21.84 1254.5,375.34 1215.33,375.34 	"/>
	<polygon class="st3" points="1842.26,519.33 1881.42,519.33 1530.57,872.83 1491.41,872.83 	"/>
	<g>
		<ellipse class="st1" cx="1794.98" cy="811.38" rx="5.69" ry="5.73"/>
		<ellipse class="st1" cx="1756.77" cy="811.38" rx="5.69" ry="5.73"/>
		<ellipse class="st1" cx="1718.55" cy="811.38" rx="5.69" ry="5.73"/>
		<ellipse class="st1" cx="1680.34" cy="811.38" rx="5.69" ry="5.73"/>
		<ellipse class="st1" cx="1642.13" cy="811.38" rx="5.69" ry="5.73"/>
		<ellipse class="st1" cx="1603.92" cy="811.38" rx="5.69" ry="5.73"/>
		<ellipse class="st1" cx="1794.98" cy="773.7" rx="5.69" ry="5.73"/>
		<ellipse class="st1" cx="1756.77" cy="773.7" rx="5.69" ry="5.73"/>
		<ellipse class="st1" cx="1718.55" cy="773.7" rx="5.69" ry="5.73"/>
		<ellipse class="st1" cx="1680.34" cy="773.7" rx="5.69" ry="5.73"/>
		<ellipse class="st1" cx="1642.13" cy="773.7" rx="5.69" ry="5.73"/>
		<ellipse class="st1" cx="1603.92" cy="773.7" rx="5.69" ry="5.73"/>
		<ellipse class="st1" cx="1794.98" cy="736.02" rx="5.69" ry="5.73"/>
		<ellipse class="st1" cx="1756.77" cy="736.02" rx="5.69" ry="5.73"/>
		<ellipse class="st1" cx="1718.55" cy="736.02" rx="5.69" ry="5.73"/>
		<ellipse class="st1" cx="1680.34" cy="736.02" rx="5.69" ry="5.73"/>
		<ellipse class="st1" cx="1642.13" cy="736.02" rx="5.69" ry="5.73"/>
		<ellipse class="st1" cx="1603.92" cy="736.02" rx="5.69" ry="5.73"/>
		<ellipse class="st1" cx="1794.98" cy="698.34" rx="5.69" ry="5.73"/>
		<ellipse class="st1" cx="1756.77" cy="698.34" rx="5.69" ry="5.73"/>
		<ellipse class="st1" cx="1718.55" cy="698.34" rx="5.69" ry="5.73"/>
		<ellipse class="st1" cx="1680.34" cy="698.34" rx="5.69" ry="5.73"/>
		<ellipse class="st1" cx="1642.13" cy="698.34" rx="5.69" ry="5.73"/>
		<ellipse class="st1" cx="1603.92" cy="698.34" rx="5.69" ry="5.73"/>
		<ellipse class="st1" cx="1794.98" cy="660.66" rx="5.69" ry="5.73"/>
		<ellipse class="st1" cx="1756.77" cy="660.66" rx="5.69" ry="5.73"/>
		<ellipse class="st1" cx="1718.55" cy="660.66" rx="5.69" ry="5.73"/>
		<ellipse class="st1" cx="1680.34" cy="660.66" rx="5.69" ry="5.73"/>
		<ellipse class="st1" cx="1642.13" cy="660.66" rx="5.69" ry="5.73"/>
		<ellipse class="st1" cx="1603.92" cy="660.66" rx="5.69" ry="5.73"/>
		<ellipse class="st1" cx="1794.98" cy="622.98" rx="5.69" ry="5.73"/>
		<ellipse class="st1" cx="1756.77" cy="622.98" rx="5.69" ry="5.73"/>
		<ellipse class="st1" cx="1718.55" cy="622.98" rx="5.69" ry="5.73"/>
		<ellipse class="st1" cx="1680.34" cy="622.98" rx="5.69" ry="5.73"/>
		<ellipse class="st1" cx="1642.13" cy="622.98" rx="5.69" ry="5.73"/>
		<ellipse class="st1" cx="1603.92" cy="622.98" rx="5.69" ry="5.73"/>
	</g>
	<polygon class="st5" points="1816.46,96.2 1855.63,96.2 1504.78,449.7 1465.61,449.7 	"/>
	<g id="XMLID_3_">
		<g>
			<path class="st6" d="M1549.94,664.26c-85.83,0-155.41-70.99-155.41-158.58c0-87.58,69.58-158.57,155.41-158.57
				c85.84,0,155.41,70.99,155.41,158.57C1705.35,593.27,1635.77,664.26,1549.94,664.26z"/>
		</g>
		<g>
		</g>
	</g>
	<polygon class="st7" points="1242.46,622.63 1143.01,722.84 1182.17,722.84 1281.63,622.63 	"/>
	<polygon class="st3" points="958.56,333.76 919.39,333.76 1270.24,-19.74 1309.41,-19.74 	"/>
	<polygon class="st4" points="1519.79,283.44 1619.25,183.23 1580.08,183.23 1480.62,283.44 	"/>
	<ellipse class="st8" cx="1398.86" cy="425.35" rx="200.58" ry="203.28"/>
	<polygon class="st4" points="1378.08,612.84 1479.23,510.92 1440.06,510.92 1338.91,612.84 	"/>
	<polygon class="st4" points="1752.71,254.97 1713.08,294.9 1752.24,294.9 1791.88,254.97 	"/>
	<polygon class="st5" points="1780.68,-52.9 1681.23,47.31 1720.39,47.31 1819.85,-52.9 	"/>
	<polygon class="st7" points="1048.31,589.08 948.85,689.29 988.02,689.29 1087.48,589.08 	"/>
	<polygon class="st7" points="1450.12,782.25 1350.66,882.45 1389.83,882.45 1489.29,782.25 	"/>
	<g>
		<ellipse class="st0" cx="1268.07" cy="333.16" rx="5.02" ry="5.05"/>
		<ellipse class="st0" cx="1234.39" cy="333.16" rx="5.02" ry="5.05"/>
		<ellipse class="st0" cx="1200.72" cy="333.16" rx="5.02" ry="5.05"/>
		<ellipse class="st0" cx="1167.04" cy="333.16" rx="5.02" ry="5.05"/>
		<ellipse class="st0" cx="1133.36" cy="333.16" rx="5.02" ry="5.05"/>
		<ellipse class="st0" cx="1234.39" cy="299.95" rx="5.02" ry="5.05"/>
		<ellipse class="st0" cx="1200.72" cy="299.95" rx="5.02" ry="5.05"/>
		<ellipse class="st0" cx="1167.04" cy="299.95" rx="5.02" ry="5.05"/>
		<ellipse class="st0" cx="1133.36" cy="299.95" rx="5.02" ry="5.05"/>
		<ellipse class="st0" cx="1200.72" cy="266.75" rx="5.02" ry="5.05"/>
		<ellipse class="st0" cx="1167.04" cy="266.75" rx="5.02" ry="5.05"/>
		<ellipse class="st0" cx="1133.36" cy="266.75" rx="5.02" ry="5.05"/>
		<ellipse class="st0" cx="1167.04" cy="233.54" rx="5.02" ry="5.05"/>
		<ellipse class="st0" cx="1133.36" cy="233.54" rx="5.02" ry="5.05"/>
		<ellipse class="st0" cx="1133.36" cy="200.33" rx="5.02" ry="5.05"/>
	</g>
	<g>
		<ellipse class="st0" cx="1767.03" cy="261.69" rx="5.02" ry="5.05"/>
		<ellipse class="st0" cx="1733.35" cy="261.69" rx="5.02" ry="5.05"/>
		<ellipse class="st0" cx="1699.67" cy="261.69" rx="5.02" ry="5.05"/>
		<ellipse class="st0" cx="1666" cy="261.69" rx="5.02" ry="5.05"/>
		<ellipse class="st0" cx="1632.32" cy="261.69" rx="5.02" ry="5.05"/>
		<ellipse class="st0" cx="1733.35" cy="228.48" rx="5.02" ry="5.05"/>
		<ellipse class="st0" cx="1699.67" cy="228.48" rx="5.02" ry="5.05"/>
		<ellipse class="st0" cx="1666" cy="228.48" rx="5.02" ry="5.05"/>
		<ellipse class="st0" cx="1632.32" cy="228.48" rx="5.02" ry="5.05"/>
		<ellipse class="st0" cx="1699.67" cy="195.27" rx="5.02" ry="5.05"/>
		<ellipse class="st0" cx="1666" cy="195.27" rx="5.02" ry="5.05"/>
		<ellipse class="st0" cx="1632.32" cy="195.27" rx="5.02" ry="5.05"/>
		<ellipse class="st0" cx="1666" cy="162.06" rx="5.02" ry="5.05"/>
		<ellipse class="st0" cx="1632.32" cy="162.06" rx="5.02" ry="5.05"/>
		<ellipse class="st0" cx="1632.32" cy="128.85" rx="5.02" ry="5.05"/>
	</g>
	<polygon class="st4" points="1025.57,822.14 1069.13,778.26 1029.96,778.26 986.4,822.14 	"/>
	<polygon class="st9" points="1255.41,640.47 1260.73,640.47 1260.73,645.83 1265.38,645.83 1265.38,640.47 1270.7,640.47 
		1270.7,635.78 1265.38,635.78 1265.38,630.43 1260.73,630.43 1260.73,635.78 1255.41,635.78 	"/>
	<polygon class="st9" points="1257.89,479.65 1263.21,479.65 1263.21,485.01 1267.86,485.01 1267.86,479.65 1273.18,479.65 
		1273.18,474.96 1267.86,474.96 1267.86,469.61 1263.21,469.61 1263.21,474.96 1257.89,474.96 	"/>
	<polygon class="st3" points="1505.54,213.76 1509.3,217.55 1505.54,221.34 1508.83,224.65 1512.59,220.87 1516.35,224.65 
		1519.65,221.34 1515.89,217.55 1519.65,213.76 1516.35,210.44 1512.59,214.23 1508.83,210.44 	"/>
	<polygon class="st9" points="1784.23,345.78 1789.55,345.78 1789.55,351.14 1794.2,351.14 1794.2,345.78 1799.52,345.78 
		1799.52,341.09 1794.2,341.09 1794.2,335.74 1789.55,335.74 1789.55,341.09 1784.23,341.09 	"/>
	<polygon class="st9" points="1149.45,515.74 1154.76,515.74 1154.76,521.09 1159.42,521.09 1159.42,515.74 1164.73,515.74 
		1164.73,511.05 1159.42,511.05 1159.42,505.69 1154.76,505.69 1154.76,511.05 1149.45,511.05 	"/>
	<polygon class="st4" points="1053.84,609.35 1059.15,609.35 1059.15,614.7 1063.81,614.7 1063.81,609.35 1069.13,609.35 
		1069.13,604.66 1063.81,604.66 1063.81,599.3 1059.15,599.3 1059.15,604.66 1053.84,604.66 	"/>
	<polygon class="st1" points="1521.64,92.64 1526.95,92.64 1526.95,98 1531.61,98 1531.61,92.64 1536.93,92.64 1536.93,87.95 
		1531.61,87.95 1531.61,82.6 1526.95,82.6 1526.95,87.95 1521.64,87.95 	"/>
	<g class="st10">
		<text transform="matrix(-0.9867 0 0 -1 1517.0811 450.1797)" class="st11 st12 st13 st14">BACKGROUND</text>
		<text transform="matrix(-0.9867 0 0 -1 1460.3188 289.8477)" class="st11 st12 st13">READ MORE</text>
		<text transform="matrix(-0.9867 0 0 -1 1511.2739 485.0313)" class="st11 st15 st16 st17">PASTEL</text>
		<rect x="1260.24" y="334.22" class="st18" width="287.89" height="79.97"/>
		<text transform="matrix(-0.9867 0 0 -1 1544.9873 404.8926)" class="st19"><tspan x="0" y="0" class="st0 st12 st20">Lorem ipsum dolor sit amet, consectetuer adipiscing </tspan><tspan x="4.26" y="15.71" class="st0 st12 st20">elit, sed diam nonummy nibh euismod tincidunt ut </tspan><tspan x="2.66" y="31.43" class="st0 st12 st20">laoreet dolore magna aliquam erat volutpat. Ut wisi </tspan><tspan x="42.96" y="47.14" class="st0 st12 st20">enim ad minim veniam, quis nostrud </tspan></text>
	</g>
	<polygon class="st3" points="1039.73,800.12 1043.49,803.91 1039.73,807.69 1043.03,811.01 1046.79,807.22 1050.54,811.01 
		1053.84,807.69 1050.08,803.91 1053.84,800.12 1050.54,796.8 1046.79,800.59 1043.03,796.8 	"/>
</g>
</svg>
