<?xml version="1.0" encoding="utf-8"?>
<!-- Generator: Adobe Illustrator 24.3.0, SVG Export Plug-In . SVG Version: 6.00 Build 0)  -->
<svg version="1.1" xmlns="http://www.w3.org/2000/svg" xmlns:xlink="http://www.w3.org/1999/xlink" x="0px" y="0px"
	 viewBox="0 0 2800 2800" style="enable-background:new 0 0 2800 2800;" xml:space="preserve">
<style type="text/css">
	.st0{fill:#FFFFFF;}
	.st1{fill:#FFA6C3;}
	.st2{fill:#E9FBFF;}
	.st3{fill:#A3C3C2;}
	.st4{fill:#FFD782;}
	.st5{fill:#EEBFD9;}
	.st6{fill:#C7FFD4;}
	.st7{fill:#D4F5DD;}
	.st8{display:none;fill:#D9BCF2;}
	.st9{fill:#D9BCF2;}
	.st10{display:none;}
	.st11{display:inline;fill:#FFFFFF;}
	.st12{font-family:'Montserrat-Light';}
	.st13{font-size:66.2822px;}
	.st14{letter-spacing:28.32;}
	.st15{font-family:'Montserrat-SemiBold';}
	.st16{font-size:167.9657px;}
	.st17{letter-spacing:21.24;}
	.st18{display:inline;fill:none;}
	.st19{display:inline;}
	.st20{font-size:38px;}
</style>
<g id="Layer_2">
</g>
<g id="Layer_1">
	<g>
		<rect class="st0" width="2785.03" height="2800"/>
		<ellipse class="st1" cx="1907.03" cy="1836.47" rx="325.57" ry="327.32"/>
		<g id="XMLID_1_">
			<g>
				<path class="st2" d="M622.19,1819.84c179.8,0,325.57,146.54,325.57,327.32c0,180.77-145.77,327.31-325.57,327.31
					s-325.56-146.54-325.56-327.31C296.63,1966.38,442.39,1819.84,622.19,1819.84z"/>
			</g>
			<g>
			</g>
		</g>
		<g>
			<ellipse class="st3" cx="1375.96" cy="2044.23" rx="16.55" ry="16.64"/>
			<ellipse class="st3" cx="1487.09" cy="2044.23" rx="16.55" ry="16.64"/>
			<ellipse class="st3" cx="1598.21" cy="2044.23" rx="16.55" ry="16.64"/>
			<ellipse class="st3" cx="1709.34" cy="2044.23" rx="16.55" ry="16.64"/>
			<ellipse class="st3" cx="1820.46" cy="2044.23" rx="16.55" ry="16.64"/>
			<ellipse class="st3" cx="1931.58" cy="2044.23" rx="16.55" ry="16.64"/>
			<ellipse class="st3" cx="1375.96" cy="2153.57" rx="16.55" ry="16.64"/>
			<ellipse class="st3" cx="1487.09" cy="2153.57" rx="16.55" ry="16.64"/>
			<ellipse class="st3" cx="1598.21" cy="2153.57" rx="16.55" ry="16.64"/>
			<ellipse class="st3" cx="1709.34" cy="2153.57" rx="16.55" ry="16.64"/>
			<ellipse class="st3" cx="1820.46" cy="2153.57" rx="16.55" ry="16.64"/>
			<ellipse class="st3" cx="1931.58" cy="2153.57" rx="16.55" ry="16.64"/>
			<ellipse class="st3" cx="1375.96" cy="2262.91" rx="16.55" ry="16.64"/>
			<ellipse class="st3" cx="1487.09" cy="2262.91" rx="16.55" ry="16.64"/>
			<ellipse class="st3" cx="1598.21" cy="2262.91" rx="16.55" ry="16.64"/>
			<ellipse class="st3" cx="1709.34" cy="2262.91" rx="16.55" ry="16.64"/>
			<ellipse class="st3" cx="1820.46" cy="2262.91" rx="16.55" ry="16.64"/>
			<ellipse class="st3" cx="1931.58" cy="2262.91" rx="16.55" ry="16.64"/>
			<ellipse class="st3" cx="1375.96" cy="2372.26" rx="16.55" ry="16.64"/>
			<ellipse class="st3" cx="1487.09" cy="2372.26" rx="16.55" ry="16.64"/>
			<ellipse class="st3" cx="1598.21" cy="2372.26" rx="16.55" ry="16.64"/>
			<ellipse class="st3" cx="1709.34" cy="2372.26" rx="16.55" ry="16.64"/>
			<ellipse class="st3" cx="1820.46" cy="2372.26" rx="16.55" ry="16.64"/>
			<ellipse class="st3" cx="1931.58" cy="2372.26" rx="16.55" ry="16.64"/>
			<ellipse class="st3" cx="1375.96" cy="2481.6" rx="16.55" ry="16.64"/>
			<ellipse class="st3" cx="1487.09" cy="2481.6" rx="16.55" ry="16.64"/>
			<ellipse class="st3" cx="1598.21" cy="2481.6" rx="16.55" ry="16.64"/>
			<ellipse class="st3" cx="1709.34" cy="2481.6" rx="16.55" ry="16.64"/>
			<ellipse class="st3" cx="1820.46" cy="2481.6" rx="16.55" ry="16.64"/>
			<ellipse class="st3" cx="1931.58" cy="2481.6" rx="16.55" ry="16.64"/>
			<ellipse class="st3" cx="1375.96" cy="2590.95" rx="16.55" ry="16.64"/>
			<ellipse class="st3" cx="1487.09" cy="2590.95" rx="16.55" ry="16.64"/>
			<ellipse class="st3" cx="1598.21" cy="2590.95" rx="16.55" ry="16.64"/>
			<ellipse class="st3" cx="1709.34" cy="2590.95" rx="16.55" ry="16.64"/>
			<ellipse class="st3" cx="1820.46" cy="2590.95" rx="16.55" ry="16.64"/>
			<ellipse class="st3" cx="1931.58" cy="2590.95" rx="16.55" ry="16.64"/>
		</g>
		<g>
			<g>
				<path class="st4" d="M1671.67,806.98c-47.98,0-94.53-9.23-138.35-27.43c-42.33-17.58-80.34-42.75-112.98-74.8
					c-32.64-32.05-58.27-69.38-76.17-110.94c-18.54-43.04-27.94-88.75-27.94-135.87c0-47.12,9.4-92.83,27.94-135.87
					c17.9-41.57,43.53-78.89,76.17-110.94c32.64-32.05,70.65-57.22,112.98-74.8c43.83-18.2,90.38-27.43,138.35-27.43
					c47.98,0,94.53,9.23,138.35,27.43c42.33,17.58,80.34,42.75,112.98,74.8c32.64,32.05,58.27,69.38,76.17,110.94
					c18.54,43.04,27.94,88.75,27.94,135.87c0,47.12-9.4,92.83-27.94,135.87c-17.9,41.57-43.53,78.89-76.17,110.94
					c-32.64,32.05-70.65,57.22-112.98,74.8C1766.19,797.75,1719.64,806.98,1671.67,806.98z M1671.67,129.08
					c-45.21,0-89.07,8.69-130.35,25.84c-39.88,16.56-75.69,40.28-106.45,70.48s-54.91,65.38-71.77,104.54
					c-17.46,40.54-26.31,83.6-26.31,128.01c0,44.4,8.85,87.47,26.31,128.01c16.87,39.16,41.01,74.33,71.77,104.54
					c30.76,30.21,66.57,53.92,106.45,70.48c41.28,17.15,85.14,25.84,130.35,25.84c45.21,0,89.07-8.69,130.35-25.84
					c39.88-16.56,75.69-40.28,106.45-70.48c30.76-30.21,54.91-65.38,71.77-104.54c17.46-40.54,26.31-83.6,26.31-128.01
					c0-44.4-8.85-87.47-26.31-128.01c-16.87-39.16-41.01-74.33-71.77-104.54c-30.76-30.21-66.57-53.92-106.45-70.48
					C1760.74,137.77,1716.88,129.08,1671.67,129.08z"/>
			</g>
			<g>
				<path class="st4" d="M1671.67,779.47c-44.2,0-87.08-8.5-127.45-25.27c-38.99-16.19-74-39.38-104.07-68.9
					c-30.07-29.53-53.67-63.91-70.16-102.2c-17.08-39.65-25.73-81.75-25.73-125.16c0-43.4,8.66-85.51,25.73-125.16
					c16.49-38.29,40.1-72.67,70.16-102.2c30.07-29.53,65.08-52.71,104.07-68.9c40.37-16.77,83.25-25.27,127.45-25.27
					c44.2,0,87.08,8.5,127.45,25.27c38.99,16.19,74,39.38,104.07,68.9s53.67,63.91,70.16,102.2
					c17.08,39.65,25.73,81.75,25.73,125.16c0,43.4-8.66,85.51-25.73,125.16c-16.49,38.29-40.1,72.67-70.16,102.2
					c-30.07,29.53-65.08,52.71-104.07,68.9C1758.74,770.96,1715.86,779.47,1671.67,779.47z M1671.67,155.24
					c-41.62,0-81.98,8-119.98,23.78c-36.7,15.25-69.67,37.07-97.98,64.87c-28.31,27.8-50.54,60.17-66.06,96.22
					c-16.07,37.31-24.22,76.95-24.22,117.82c0,40.87,8.15,80.51,24.22,117.82c15.52,36.04,37.75,68.42,66.06,96.22
					c28.31,27.8,61.28,49.63,97.98,64.87c38,15.78,78.36,23.78,119.98,23.78s81.98-8,119.98-23.78
					c36.7-15.25,69.67-37.07,97.98-64.87c28.31-27.8,50.54-60.17,66.06-96.22c16.07-37.31,24.22-76.95,24.22-117.82
					c0-40.87-8.15-80.51-24.22-117.82c-15.52-36.04-37.75-68.42-66.06-96.22c-28.31-27.8-61.28-49.63-97.98-64.87
					C1753.65,163.24,1713.28,155.24,1671.67,155.24z"/>
			</g>
			<g>
				<path class="st4" d="M1671.67,751.95c-40.42,0-79.63-7.78-116.54-23.11c-35.65-14.81-67.67-36.01-95.17-63.01
					c-27.49-27-49.08-58.44-64.16-93.45c-15.61-36.25-23.53-74.76-23.53-114.45c0-39.69,7.92-78.19,23.53-114.45
					c15.08-35.01,36.67-66.45,64.16-93.45c27.49-27,59.51-48.2,95.17-63.01c36.92-15.33,76.13-23.11,116.54-23.11
					c40.41,0,79.63,7.77,116.54,23.11c35.65,14.81,67.67,36.01,95.17,63.01c27.49,27,49.08,58.44,64.16,93.45
					c15.61,36.25,23.53,74.76,23.53,114.45c0,39.69-7.92,78.19-23.53,114.45c-15.08,35.01-36.67,66.45-64.16,93.45
					c-27.49,27-59.51,48.2-95.17,63.01C1751.29,744.18,1712.08,751.95,1671.67,751.95z M1671.67,181.41
					c-38.02,0-74.9,7.31-109.61,21.73c-33.53,13.93-63.65,33.87-89.51,59.27c-25.86,25.4-46.17,54.97-60.35,87.9
					c-14.68,34.09-22.13,70.3-22.13,107.63c0,37.33,7.44,73.55,22.13,107.63c14.18,32.93,34.49,62.5,60.35,87.9
					c25.86,25.4,55.98,45.34,89.51,59.27c34.71,14.42,71.59,21.73,109.61,21.73s74.9-7.31,109.61-21.73
					c33.53-13.93,63.65-33.87,89.51-59.27c25.86-25.4,46.17-54.97,60.35-87.9c14.68-34.09,22.13-70.3,22.13-107.63
					c0-37.33-7.44-73.55-22.13-107.63c-14.18-32.93-34.49-62.5-60.35-87.9c-25.86-25.4-55.98-45.34-89.51-59.27
					C1746.56,188.72,1709.68,181.41,1671.67,181.41z"/>
			</g>
			<g>
				<path class="st4" d="M1671.67,724.44c-36.63,0-72.17-7.05-105.64-20.95c-32.32-13.42-61.34-32.64-86.26-57.11
					c-24.92-24.47-44.49-52.97-58.16-84.71c-14.15-32.86-21.33-67.76-21.33-103.74c0-35.97,7.18-70.88,21.33-103.74
					c13.67-31.74,33.24-60.24,58.16-84.71c24.92-24.47,53.94-43.69,86.26-57.11c33.46-13.9,69-20.95,105.64-20.95
					c36.63,0,72.17,7.05,105.64,20.95c32.32,13.42,61.34,32.64,86.26,57.11c24.92,24.47,44.49,52.97,58.16,84.71
					c14.15,32.86,21.33,67.76,21.33,103.74c0,35.97-7.18,70.88-21.33,103.74c-13.67,31.74-33.24,60.24-58.16,84.71
					c-24.92,24.47-53.94,43.69-86.26,57.11C1743.84,717.39,1708.3,724.44,1671.67,724.44z M1671.67,207.58
					c-34.42,0-67.81,6.62-99.23,19.67c-30.36,12.61-57.62,30.66-81.04,53.66c-23.42,23-41.8,49.77-54.64,79.58
					c-13.29,30.86-20.03,63.65-20.03,97.45c0,33.8,6.74,66.59,20.03,97.45c12.84,29.81,31.22,56.59,54.64,79.58
					c23.42,23,50.68,41.05,81.04,53.66c31.43,13.05,64.81,19.67,99.23,19.67c34.42,0,67.81-6.62,99.23-19.67
					c30.36-12.61,57.62-30.66,81.04-53.66c23.42-23,41.8-49.77,54.64-79.58c13.29-30.86,20.03-63.65,20.03-97.45
					c0-33.8-6.74-66.59-20.03-97.45c-12.84-29.81-31.22-56.59-54.64-79.58c-23.42-23-50.68-41.05-81.04-53.66
					C1739.47,214.2,1706.09,207.58,1671.67,207.58z"/>
			</g>
			<g>
				<path class="st4" d="M1671.67,696.93c-32.85,0-64.72-6.32-94.73-18.78c-28.98-12.04-55.01-29.27-77.35-51.21
					c-22.35-21.95-39.89-47.5-52.15-75.96c-12.69-29.47-19.13-60.77-19.13-93.03s6.44-63.56,19.13-93.03
					c12.26-28.46,29.8-54.02,52.15-75.96c22.35-21.95,48.37-39.18,77.35-51.21c30.01-12.46,61.88-18.78,94.73-18.78
					s64.72,6.32,94.73,18.78c28.98,12.04,55.01,29.27,77.35,51.21c22.35,21.95,39.89,47.5,52.15,75.96
					c12.69,29.47,19.13,60.77,19.13,93.03s-6.44,63.56-19.13,93.03c-12.26,28.46-29.8,54.02-52.15,75.96
					c-22.35,21.95-48.37,39.18-77.35,51.21C1736.39,690.61,1704.52,696.93,1671.67,696.93z M1671.67,233.75
					c-60.98,0-118.31,23.32-161.43,65.66c-43.12,42.34-66.87,98.64-66.87,158.53c0,59.88,23.75,116.18,66.87,158.53
					c43.12,42.34,100.45,65.66,161.43,65.66c60.98,0,118.31-23.32,161.43-65.66c43.12-42.34,66.87-98.64,66.87-158.53
					c0-59.88-23.75-116.18-66.87-158.53C1789.98,257.07,1732.65,233.75,1671.67,233.75z"/>
			</g>
			<g>
				<path class="st4" d="M1671.67,669.41c-57.52,0-111.6-22-152.28-61.94c-40.67-39.94-63.07-93.05-63.07-149.54
					c0-56.49,22.4-109.59,63.07-149.54c40.67-39.94,94.75-61.94,152.28-61.94c57.52,0,111.6,22,152.28,61.94
					c40.67,39.94,63.07,93.05,63.07,149.54c0,56.49-22.4,109.59-63.07,149.54C1783.27,647.42,1729.19,669.41,1671.67,669.41z
					 M1671.67,259.92c-53.86,0-104.5,20.6-142.59,58c-38.09,37.4-59.06,87.13-59.06,140.02c0,52.89,20.98,102.62,59.06,140.02
					c38.09,37.4,88.73,58,142.59,58s104.5-20.6,142.59-58c38.09-37.4,59.06-87.13,59.06-140.02c0-52.89-20.98-102.62-59.06-140.02
					C1776.17,280.51,1725.53,259.92,1671.67,259.92z"/>
			</g>
			<g>
				<path class="st4" d="M1671.67,641.9c-50.04,0-97.08-19.14-132.46-53.88c-35.38-34.75-54.87-80.94-54.87-130.08
					c0-49.14,19.49-95.34,54.87-130.08c35.38-34.75,82.43-53.88,132.46-53.88c50.04,0,97.08,19.14,132.46,53.88
					c35.38,34.75,54.87,80.94,54.87,130.08c0,49.14-19.49,95.34-54.87,130.08C1768.75,622.77,1721.7,641.9,1671.67,641.9z
					 M1671.67,286.08c-46.74,0-90.69,17.88-123.75,50.34c-33.05,32.46-51.26,75.62-51.26,121.52c0,45.9,18.2,89.06,51.26,121.52
					c33.05,32.46,77,50.34,123.75,50.34s90.69-17.88,123.75-50.34c33.05-32.46,51.26-75.62,51.26-121.52
					c0-45.9-18.2-89.06-51.26-121.52C1762.36,303.96,1718.41,286.08,1671.67,286.08z"/>
			</g>
			<g>
				<path class="st4" d="M1671.67,614.39c-42.55,0-82.56-16.27-112.65-45.82c-30.09-29.55-46.66-68.84-46.66-110.63
					c0-41.79,16.57-81.08,46.66-110.63c30.09-29.55,70.1-45.82,112.65-45.82c42.55,0,82.56,16.27,112.65,45.82
					c30.09,29.55,46.66,68.84,46.66,110.63c0,41.79-16.57,81.08-46.66,110.63C1754.23,598.11,1714.22,614.39,1671.67,614.39z
					 M1671.67,312.25c-39.63,0-76.88,15.15-104.9,42.67c-28.02,27.52-43.45,64.1-43.45,103.02c0,38.91,15.43,75.5,43.45,103.02
					c28.02,27.52,65.28,42.67,104.9,42.67s76.88-15.15,104.9-42.67s43.45-64.1,43.45-103.02c0-38.91-15.43-75.5-43.45-103.02
					C1748.55,327.4,1711.29,312.25,1671.67,312.25z"/>
			</g>
			<g>
				<path class="st4" d="M1671.67,586.87c-72.4,0-131.3-57.84-131.3-128.94c0-71.1,58.9-128.94,131.3-128.94
					c72.4,0,131.3,57.84,131.3,128.94C1802.96,529.03,1744.06,586.87,1671.67,586.87z M1671.67,338.42
					c-67.11,0-121.71,53.62-121.71,119.52c0,65.9,54.6,119.52,121.71,119.52c67.11,0,121.71-53.62,121.71-119.52
					C1793.37,392.04,1738.78,338.42,1671.67,338.42z"/>
			</g>
			<g>
				<path class="st4" d="M1671.67,559.36c-56.95,0-103.28-45.5-103.28-101.42c0-55.92,46.33-101.42,103.28-101.42
					c56.95,0,103.28,45.5,103.28,101.42C1774.95,513.86,1728.61,559.36,1671.67,559.36z M1671.67,364.59
					c-52.42,0-95.06,41.88-95.06,93.35s42.64,93.35,95.06,93.35s95.06-41.88,95.06-93.35S1724.08,364.59,1671.67,364.59z"/>
			</g>
			<g>
				<path class="st4" d="M1671.67,531.85c-41.5,0-75.26-33.16-75.26-73.91c0-40.75,33.76-73.91,75.26-73.91
					c41.5,0,75.26,33.16,75.26,73.91C1746.93,498.69,1713.17,531.85,1671.67,531.85z M1671.67,390.76
					c-37.72,0-68.41,30.14-68.41,67.18c0,37.04,30.69,67.18,68.41,67.18s68.41-30.14,68.41-67.18
					C1740.08,420.89,1709.39,390.76,1671.67,390.76z"/>
			</g>
		</g>
		<polygon class="st5" points="634.53,1393.73 520.63,1393.73 1540.94,367.94 1654.84,367.94 		"/>
		<polygon class="st4" points="919.06,2570.92 805.16,2570.92 1825.47,1545.12 1939.37,1545.12 		"/>
		<polygon class="st3" points="116.21,1127.28 2.31,1127.28 1022.62,101.49 1136.52,101.49 		"/>
		<g>
			<ellipse class="st1" cx="253.7" cy="279.79" rx="16.55" ry="16.64"/>
			<ellipse class="st1" cx="364.83" cy="279.79" rx="16.55" ry="16.64"/>
			<ellipse class="st1" cx="475.95" cy="279.79" rx="16.55" ry="16.64"/>
			<ellipse class="st1" cx="587.07" cy="279.79" rx="16.55" ry="16.64"/>
			<ellipse class="st1" cx="698.2" cy="279.79" rx="16.55" ry="16.64"/>
			<ellipse class="st1" cx="809.32" cy="279.79" rx="16.55" ry="16.64"/>
			<ellipse class="st1" cx="253.7" cy="389.13" rx="16.55" ry="16.64"/>
			<ellipse class="st1" cx="364.83" cy="389.13" rx="16.55" ry="16.64"/>
			<ellipse class="st1" cx="475.95" cy="389.13" rx="16.55" ry="16.64"/>
			<ellipse class="st1" cx="587.07" cy="389.13" rx="16.55" ry="16.64"/>
			<ellipse class="st1" cx="698.2" cy="389.13" rx="16.55" ry="16.64"/>
			<ellipse class="st1" cx="809.32" cy="389.13" rx="16.55" ry="16.64"/>
			<ellipse class="st1" cx="253.7" cy="498.48" rx="16.55" ry="16.64"/>
			<ellipse class="st1" cx="364.83" cy="498.48" rx="16.55" ry="16.64"/>
			<ellipse class="st1" cx="475.95" cy="498.48" rx="16.55" ry="16.64"/>
			<ellipse class="st1" cx="587.07" cy="498.48" rx="16.55" ry="16.64"/>
			<ellipse class="st1" cx="698.2" cy="498.48" rx="16.55" ry="16.64"/>
			<ellipse class="st1" cx="809.32" cy="498.48" rx="16.55" ry="16.64"/>
			<ellipse class="st1" cx="253.7" cy="607.82" rx="16.55" ry="16.64"/>
			<ellipse class="st1" cx="364.83" cy="607.82" rx="16.55" ry="16.64"/>
			<ellipse class="st1" cx="475.95" cy="607.82" rx="16.55" ry="16.64"/>
			<ellipse class="st1" cx="587.07" cy="607.82" rx="16.55" ry="16.64"/>
			<ellipse class="st1" cx="698.2" cy="607.82" rx="16.55" ry="16.64"/>
			<ellipse class="st1" cx="809.32" cy="607.82" rx="16.55" ry="16.64"/>
			<ellipse class="st1" cx="253.7" cy="717.16" rx="16.55" ry="16.64"/>
			<ellipse class="st1" cx="364.83" cy="717.16" rx="16.55" ry="16.64"/>
			<ellipse class="st1" cx="475.95" cy="717.16" rx="16.55" ry="16.64"/>
			<ellipse class="st1" cx="587.07" cy="717.16" rx="16.55" ry="16.64"/>
			<ellipse class="st1" cx="698.2" cy="717.16" rx="16.55" ry="16.64"/>
			<ellipse class="st1" cx="809.32" cy="717.16" rx="16.55" ry="16.64"/>
			<ellipse class="st1" cx="253.7" cy="826.51" rx="16.55" ry="16.64"/>
			<ellipse class="st1" cx="364.83" cy="826.51" rx="16.55" ry="16.64"/>
			<ellipse class="st1" cx="475.95" cy="826.51" rx="16.55" ry="16.64"/>
			<ellipse class="st1" cx="587.07" cy="826.51" rx="16.55" ry="16.64"/>
			<ellipse class="st1" cx="698.2" cy="826.51" rx="16.55" ry="16.64"/>
			<ellipse class="st1" cx="809.32" cy="826.51" rx="16.55" ry="16.64"/>
		</g>
		<polygon class="st5" points="191.22,2355.12 77.32,2355.12 1097.63,1329.33 1211.53,1329.33 		"/>
		<g id="XMLID_2_">
			<g>
				<path class="st6" d="M966.31,706.7c249.61,0,451.95,206.01,451.95,460.16c0,254.14-202.34,460.15-451.95,460.15
					s-451.96-206.01-451.96-460.15C514.35,912.72,716.7,706.7,966.31,706.7z"/>
			</g>
			<g>
			</g>
		</g>
		<polygon class="st7" points="1860.47,827.52 2149.7,536.73 2035.8,536.73 1746.56,827.52 		"/>
		<polygon class="st3" points="2686.1,1665.77 2800,1665.77 1779.69,2691.57 1665.79,2691.57 		"/>
		<polygon class="st4" points="1053.97,1811.79 764.74,2102.58 878.64,2102.58 1167.87,1811.79 		"/>
		<ellipse class="st8" cx="1405.66" cy="1400" rx="583.31" ry="589.89"/>
		<polygon class="st4" points="1466.09,855.94 1171.93,1151.68 1285.84,1151.68 1579.99,855.94 		"/>
		<polygon class="st4" points="376.62,1894.41 491.88,1778.53 377.98,1778.53 262.72,1894.41 		"/>
		<polygon class="st5" points="295.27,2787.8 584.51,2497.01 470.6,2497.01 181.37,2787.8 		"/>
		<polygon class="st7" points="2425.08,924.86 2714.32,634.07 2600.41,634.07 2311.18,924.86 		"/>
		<polygon class="st7" points="1256.58,364.34 1545.82,73.55 1431.91,73.55 1142.68,364.34 		"/>
		<g>
			<ellipse class="st0" cx="1786" cy="1667.5" rx="14.59" ry="14.66"/>
			<ellipse class="st0" cx="1883.94" cy="1667.5" rx="14.59" ry="14.66"/>
			<ellipse class="st0" cx="1981.87" cy="1667.5" rx="14.59" ry="14.66"/>
			<ellipse class="st0" cx="2079.81" cy="1667.5" rx="14.59" ry="14.66"/>
			<ellipse class="st0" cx="2177.75" cy="1667.5" rx="14.59" ry="14.66"/>
			<ellipse class="st0" cx="1883.94" cy="1763.87" rx="14.59" ry="14.66"/>
			<ellipse class="st0" cx="1981.87" cy="1763.87" rx="14.59" ry="14.66"/>
			<ellipse class="st0" cx="2079.81" cy="1763.87" rx="14.59" ry="14.66"/>
			<ellipse class="st0" cx="2177.75" cy="1763.87" rx="14.59" ry="14.66"/>
			<ellipse class="st0" cx="1981.87" cy="1860.24" rx="14.59" ry="14.66"/>
			<ellipse class="st0" cx="2079.81" cy="1860.24" rx="14.59" ry="14.66"/>
			<ellipse class="st0" cx="2177.75" cy="1860.24" rx="14.59" ry="14.66"/>
			<ellipse class="st0" cx="2079.81" cy="1956.6" rx="14.59" ry="14.66"/>
			<ellipse class="st0" cx="2177.75" cy="1956.6" rx="14.59" ry="14.66"/>
			<ellipse class="st0" cx="2177.75" cy="2052.97" rx="14.59" ry="14.66"/>
		</g>
		<g>
			<ellipse class="st0" cx="334.98" cy="1874.9" rx="14.59" ry="14.66"/>
			<ellipse class="st0" cx="432.92" cy="1874.9" rx="14.59" ry="14.66"/>
			<ellipse class="st0" cx="530.86" cy="1874.9" rx="14.59" ry="14.66"/>
			<ellipse class="st0" cx="628.79" cy="1874.9" rx="14.59" ry="14.66"/>
			<ellipse class="st0" cx="726.73" cy="1874.9" rx="14.59" ry="14.66"/>
			<ellipse class="st0" cx="432.92" cy="1971.27" rx="14.59" ry="14.66"/>
			<ellipse class="st0" cx="530.86" cy="1971.27" rx="14.59" ry="14.66"/>
			<ellipse class="st0" cx="628.79" cy="1971.27" rx="14.59" ry="14.66"/>
			<ellipse class="st0" cx="726.73" cy="1971.27" rx="14.59" ry="14.66"/>
			<ellipse class="st0" cx="530.86" cy="2067.64" rx="14.59" ry="14.66"/>
			<ellipse class="st0" cx="628.79" cy="2067.64" rx="14.59" ry="14.66"/>
			<ellipse class="st0" cx="726.73" cy="2067.64" rx="14.59" ry="14.66"/>
			<ellipse class="st0" cx="628.79" cy="2164.01" rx="14.59" ry="14.66"/>
			<ellipse class="st0" cx="726.73" cy="2164.01" rx="14.59" ry="14.66"/>
			<ellipse class="st0" cx="726.73" cy="2260.38" rx="14.59" ry="14.66"/>
		</g>
		<polygon class="st4" points="2491.21,248.58 2364.55,375.92 2478.45,375.92 2605.11,248.58 		"/>
		<polygon class="st9" points="1822.82,775.74 1807.35,775.74 1807.35,760.2 1793.82,760.2 1793.82,775.74 1778.35,775.74 
			1778.35,789.35 1793.82,789.35 1793.82,804.9 1807.35,804.9 1807.35,789.35 1822.82,789.35 		"/>
		<polygon class="st9" points="1815.6,1242.42 1800.14,1242.42 1800.14,1226.87 1786.61,1226.87 1786.61,1242.42 1771.14,1242.42 
			1771.14,1256.03 1786.61,1256.03 1786.61,1271.57 1800.14,1271.57 1800.14,1256.03 1815.6,1256.03 		"/>
		<polygon class="st3" points="1095.41,2013.99 1084.47,2003 1095.41,1992 1085.84,1982.38 1074.9,1993.37 1063.97,1982.38 
			1054.4,1992 1065.33,2003 1054.4,2013.99 1063.97,2023.61 1074.9,2012.62 1085.84,2023.61 		"/>
		<polygon class="st9" points="284.95,1630.88 269.49,1630.88 269.49,1615.34 255.95,1615.34 255.95,1630.88 240.49,1630.88 
			240.49,1644.49 255.95,1644.49 255.95,1660.04 269.49,1660.04 269.49,1644.49 284.95,1644.49 		"/>
		<polygon class="st9" points="2130.97,1137.71 2115.51,1137.71 2115.51,1122.16 2101.97,1122.16 2101.97,1137.71 2086.51,1137.71 
			2086.51,1151.32 2101.97,1151.32 2101.97,1166.86 2115.51,1166.86 2115.51,1151.32 2130.97,1151.32 		"/>
		<polygon class="st4" points="2409.01,866.06 2393.55,866.06 2393.55,850.52 2380.01,850.52 2380.01,866.06 2364.55,866.06 
			2364.55,879.67 2380.01,879.67 2380.01,895.22 2393.55,895.22 2393.55,879.67 2409.01,879.67 		"/>
		<polygon class="st1" points="1048.6,2365.45 1033.14,2365.45 1033.14,2349.91 1019.6,2349.91 1019.6,2365.45 1004.14,2365.45 
			1004.14,2379.06 1019.6,2379.06 1019.6,2394.61 1033.14,2394.61 1033.14,2379.06 1048.6,2379.06 		"/>
		<g class="st10">
			<text transform="matrix(0.9888 0 0 1 1061.8555 1327.9385)" class="st11 st12 st13 st14">BACKGROUND</text>
			<text transform="matrix(0.9888 0 0 1 1226.9258 1793.1973)" class="st11 st12 st13">READ MORE</text>
			<text transform="matrix(0.9888 0 0 1 1078.7451 1226.8066)" class="st11 st15 st16 st17">PASTEL</text>
			<rect x="971.55" y="1432.38" class="st18" width="837.22" height="232.05"/>
			<text transform="matrix(0.9888 0 0 1 980.7017 1459.3545)" class="st19"><tspan x="0" y="0" class="st0 st12 st20">Lorem ipsum dolor sit amet, consectetuer adipiscing </tspan><tspan x="12.35" y="45.6" class="st0 st12 st20">elit, sed diam nonummy nibh euismod tincidunt ut </tspan><tspan x="7.73" y="91.2" class="st0 st12 st20">laoreet dolore magna aliquam erat volutpat. Ut wisi </tspan><tspan x="124.68" y="136.8" class="st0 st12 st20">enim ad minim veniam, quis nostrud </tspan></text>
		</g>
		<polygon class="st3" points="2450.02,312.48 2439.09,301.49 2450.02,290.5 2440.45,280.87 2429.52,291.86 2418.59,280.87 
			2409.01,290.5 2419.95,301.49 2409.01,312.48 2418.59,322.1 2429.52,311.11 2440.45,322.1 		"/>
	</g>
</g>
</svg>
