<?xml version="1.0" encoding="utf-8"?>
<!-- Generator: Adobe Illustrator 24.3.0, SVG Export Plug-In . SVG Version: 6.00 Build 0)  -->
<svg version="1.1" id="Layer_1" xmlns="http://www.w3.org/2000/svg" xmlns:xlink="http://www.w3.org/1999/xlink" x="0px" y="0px"
	 viewBox="0 0 2800 2800" style="enable-background:new 0 0 2800 2800;" xml:space="preserve">
<style type="text/css">
	.st0{clip-path:url(#SVGID_2_);fill:url(#SVGID_3_);}
	.st1{opacity:0.1;clip-path:url(#SVGID_2_);fill:#FFFFFF;}
	.st2{display:none;clip-path:url(#SVGID_2_);fill:none;stroke:#FFFFFF;stroke-width:10;stroke-miterlimit:10;}
	.st3{display:none;clip-path:url(#SVGID_2_);}
	.st4{display:inline;fill:none;stroke:#FFFFFF;stroke-width:10;stroke-linecap:round;stroke-linejoin:round;}
	.st5{font-family:'Montserrat-SemiBold';}
	.st6{font-size:146.8749px;}
	.st7{letter-spacing:16;}
	.st8{display:inline;fill:#FFFFFF;}
	.st9{font-family:'Montserrat-Light';}
	.st10{font-size:80px;}
	.st11{letter-spacing:36;}
	.st12{opacity:0.4;clip-path:url(#SVGID_2_);fill:#FFFFFF;}
	.st13{opacity:0.2;clip-path:url(#SVGID_2_);fill:#FFFFFF;}
	.st14{opacity:0.1;clip-path:url(#SVGID_2_);}
	.st15{fill:#FFFFFF;}
	.st16{clip-path:url(#SVGID_2_);}
</style>
<g>
	<defs>
		<rect id="SVGID_1_" width="2800" height="2800"/>
	</defs>
	<clipPath id="SVGID_2_">
		<use xlink:href="#SVGID_1_"  style="overflow:visible;"/>
	</clipPath>
	<linearGradient id="SVGID_3_" gradientUnits="userSpaceOnUse" x1="0" y1="2800" x2="2800" y2="4.547474e-13">
		<stop  offset="0" style="stop-color:#FF5F6D"/>
		<stop  offset="1" style="stop-color:#FFC371"/>
	</linearGradient>
	<rect class="st0" width="2800" height="2800"/>
	<path class="st1" d="M2800,177.59c-94.1,49.98-188.2,99.97-282.3,149.96c-83.01,44.1-168.01,89.74-229.72,160.64
		s-95.93,173.73-60.83,260.92c57.46,142.72,265.6,183.19,310.95,330.21c29.2,94.67-23.78,195.99-91.76,268.05
		c-67.98,72.06-152.64,128.75-210.11,209.45c-144.67,203.13-85.6,509.49-251.23,695.92c-138.72,156.15-385.42,163.45-582.84,95.26
		s-368.51-196.23-560.14-279.32c-191.63-83.09-428.45-114.79-599.07,5.68c-110.2,77.81-173.26,205.24-223.77,330.32
		c-6.46,16-12.82,32.1-19.18,48.23V2800h2800V177.59z"/>
	<path class="st2" d="M1986.03,1572.34l-413.69,413.69c-95.18,95.18-249.5,95.18-344.69,0l-413.69-413.69
		c-95.18-95.18-95.18-249.5,0-344.69l413.69-413.69c95.18-95.18,249.5-95.18,344.69,0l413.69,413.69
		C2081.21,1322.84,2081.21,1477.16,1986.03,1572.34z"/>
	<g class="st3">
		<text transform="matrix(1 0 0 1 943.043 1392.8418)" class="st4 st5 st6 st7">ABSTRACT</text>
		<text transform="matrix(1 0 0 1 935.0435 1516.165)" class="st8 st9 st10 st11">BACKGROUND</text>
	</g>
	<path class="st12" d="M1281.62,0L828.15,453.46c-23.75,23.75-23.75,62.26,0,86.02h0c23.75,23.75,62.26,23.75,86.02,0L1453.65,0
		H1281.62z"/>
	<path class="st12" d="M2800,1470.83l-477.24,477.24c-23.75,23.75-23.75,62.27,0,86.02l0,0c23.75,23.75,62.27,23.75,86.02,0
		L2800,1642.87V1470.83z"/>
	<path class="st12" d="M345.48,416.58c-23.75-23.75-62.27-23.75-86.02,0L0,676.04v172.04L345.48,502.6
		C369.23,478.84,369.23,440.33,345.48,416.58L345.48,416.58z"/>
	<path class="st12" d="M2140.84,2632.95c-23.75-23.75-62.27-23.75-86.02,0L1887.76,2800h172.04l81.04-81.04
		C2164.59,2695.21,2164.59,2656.7,2140.84,2632.95L2140.84,2632.95z"/>
	<path class="st13" d="M356.98,2068.23c-23.75-23.75-62.27-23.75-86.02,0L0,2339.19v172.04l356.98-356.98
		C380.73,2130.5,380.73,2091.99,356.98,2068.23L356.98,2068.23z"/>
	<path class="st1" d="M1388.83,1100.16L1388.83,1100.16c-23.75-23.75-23.75-62.27,0-86.02l627.93-627.93
		c23.75-23.75,62.26-23.75,86.02,0l0,0c23.75,23.75,23.75,62.27,0,86.02l-627.93,627.93
		C1451.1,1123.92,1412.59,1123.92,1388.83,1100.16z"/>
	<path class="st1" d="M881,2402.62L881,2402.62c-23.75-23.75-23.75-62.27,0-86.02l627.93-627.93c23.75-23.75,62.27-23.75,86.02,0h0
		c23.75,23.75,23.75,62.26,0,86.02l-627.93,627.93C943.26,2426.37,904.75,2426.37,881,2402.62z"/>
	<path class="st13" d="M2800,397.6l-446.08,446.08c-23.75,23.75-23.75,62.26,0,86.02h0c23.75,23.75,62.26,23.75,86.02,0L2800,569.63
		V397.6z"/>
	<g class="st14">
		<path class="st15" d="M2800,2800V1147.15c-26.02,28.05-54.41,53.92-83.27,77.02c-120.45,96.43-263.02,180.42-326.12,321.22
			c-96.42,215.14,31.83,463.45,14.35,698.56c-13.09,176.11-114.61,343.41-264.78,436.33s-345.2,109.12-508.64,42.24
			c-177.01-72.43-303.48-227.71-443.22-358.29s-323.51-246.2-510.93-208.09c-136.34,27.73-243.9,131.71-329.79,241.16
			c-97.78,124.59-177.7,261.12-249.01,402.7H2800z"/>
		<path class="st15" d="M2690.93,397.58c-9.83,92.61,48.71,167.21,109.07,243.29V233.07
			C2742.29,274.79,2698.32,327.92,2690.93,397.58z"/>
	</g>
	<path class="st1" d="M0,1872.99c67.21-35.7,134.42-71.4,201.63-107.1c59.29-31.49,120-64.09,164.07-114.73
		s68.52-124.08,43.44-186.36c-41.04-101.93-189.7-130.84-222.09-235.84c-20.86-67.61,16.98-139.98,65.54-191.45
		c48.55-51.47,109.02-91.96,150.07-149.59c103.32-145.08,61.13-363.89,179.43-497.04c99.08-111.52,275.28-116.74,416.28-68.04
		c141,48.7,263.2,140.15,400.07,199.5c136.87,59.34,306.01,81.99,427.87-4.05c78.71-55.57,123.74-146.59,159.82-235.92
		c4.61-11.43,9.16-22.93,13.7-34.45V0H0V1872.99z"/>
	<g class="st14">
		<path class="st15" d="M0,0v1180.51c18.58-20.03,38.86-38.51,59.47-55.01c86.03-68.87,187.85-128.86,232.92-229.42
			c68.86-153.66-22.73-331.01-10.25-498.93C291.49,271.36,364,151.87,471.26,85.51C578.51,19.14,717.81,7.57,834.54,55.34
			c126.42,51.73,216.75,162.64,316.56,255.9c99.8,93.26,231.06,175.84,364.92,148.62c97.38-19.8,174.2-94.07,235.55-172.24
			c69.83-88.99,126.91-186.5,177.85-287.61H0z"/>
		<path class="st15" d="M77.9,1715.86c7.02-66.15-34.79-119.43-77.9-173.76v291.26C41.22,1803.56,72.62,1765.61,77.9,1715.86z"/>
	</g>
	<g class="st16">
		<g>
			<circle class="st15" cx="675.7" cy="-201.44" r="11.89"/>
		</g>
		<g>
			<circle class="st15" cx="731.2" cy="-145.94" r="11.89"/>
		</g>
		<g>
			<circle class="st15" cx="786.7" cy="-90.44" r="11.89"/>
		</g>
		<g>
			<circle class="st15" cx="842.2" cy="-34.95" r="11.89"/>
		</g>
		<g>
			<circle class="st15" cx="897.69" cy="20.55" r="11.89"/>
		</g>
		<g>
			<circle class="st15" cx="608.52" cy="-134.25" r="11.89"/>
		</g>
		<g>
			<circle class="st15" cx="664.02" cy="-78.75" r="11.89"/>
		</g>
		<g>
			<circle class="st15" cx="719.51" cy="-23.26" r="11.89"/>
		</g>
		<g>
			<circle class="st15" cx="775.01" cy="32.24" r="11.89"/>
		</g>
		<g>
			<circle class="st15" cx="830.51" cy="87.74" r="11.89"/>
		</g>
		<g>
			<circle class="st15" cx="541.33" cy="-67.07" r="11.89"/>
		</g>
		<g>
			<circle class="st15" cx="596.83" cy="-11.57" r="11.89"/>
		</g>
		<g>
			<circle class="st15" cx="652.33" cy="43.93" r="11.89"/>
		</g>
		<g>
			<circle class="st15" cx="707.82" cy="99.43" r="11.89"/>
		</g>
		<g>
			<circle class="st15" cx="763.32" cy="154.92" r="11.89"/>
		</g>
		<g>
			<circle class="st15" cx="474.15" cy="0.12" r="11.89"/>
		</g>
		<g>
			<circle class="st15" cx="529.64" cy="55.62" r="11.89"/>
		</g>
		<g>
			<circle class="st15" cx="585.14" cy="111.11" r="11.89"/>
		</g>
		<g>
			<circle class="st15" cx="640.64" cy="166.61" r="11.89"/>
		</g>
		<g>
			<circle class="st15" cx="696.14" cy="222.11" r="11.89"/>
		</g>
		<g>
			<circle class="st15" cx="406.96" cy="67.3" r="11.89"/>
		</g>
		<g>
			<circle class="st15" cx="462.46" cy="122.8" r="11.89"/>
		</g>
		<g>
			<circle class="st15" cx="517.96" cy="178.3" r="11.89"/>
		</g>
		<g>
			<circle class="st15" cx="573.45" cy="233.8" r="11.89"/>
		</g>
		<g>
			<circle class="st15" cx="628.95" cy="289.29" r="11.89"/>
		</g>
	</g>
	<g class="st16">
		<g>
			<circle class="st15" cx="345.12" cy="2554.63" r="11.89"/>
		</g>
		<g>
			<circle class="st15" cx="400.61" cy="2610.13" r="11.89"/>
		</g>
		<g>
			<circle class="st15" cx="456.11" cy="2665.63" r="11.89"/>
		</g>
		<g>
			<circle class="st15" cx="511.61" cy="2721.13" r="11.89"/>
		</g>
		<g>
			<circle class="st15" cx="567.11" cy="2776.62" r="11.89"/>
		</g>
		<g>
			<circle class="st15" cx="277.93" cy="2621.82" r="11.89"/>
		</g>
		<g>
			<circle class="st15" cx="333.43" cy="2677.32" r="11.89"/>
		</g>
		<g>
			<circle class="st15" cx="388.93" cy="2732.81" r="11.89"/>
		</g>
		<g>
			<circle class="st15" cx="444.42" cy="2788.31" r="11.89"/>
		</g>
		<g>
			<circle class="st15" cx="499.92" cy="2843.81" r="11.89"/>
		</g>
		<g>
			<circle class="st15" cx="210.75" cy="2689" r="11.89"/>
		</g>
		<g>
			<circle class="st15" cx="266.24" cy="2744.5" r="11.89"/>
		</g>
		<g>
			<circle class="st15" cx="321.74" cy="2800" r="11.89"/>
		</g>
		<g>
			<circle class="st15" cx="377.24" cy="2855.5" r="11.89"/>
		</g>
		<g>
			<circle class="st15" cx="432.74" cy="2911" r="11.89"/>
		</g>
		<g>
			<circle class="st15" cx="143.56" cy="2756.19" r="11.89"/>
		</g>
		<g>
			<circle class="st15" cx="199.06" cy="2811.69" r="11.89"/>
		</g>
		<g>
			<circle class="st15" cx="254.56" cy="2867.19" r="11.89"/>
		</g>
		<g>
			<circle class="st15" cx="310.05" cy="2922.68" r="11.89"/>
		</g>
		<g>
			<circle class="st15" cx="365.55" cy="2978.18" r="11.89"/>
		</g>
		<g>
			<circle class="st15" cx="76.37" cy="2823.38" r="11.89"/>
		</g>
		<g>
			<circle class="st15" cx="131.87" cy="2878.87" r="11.89"/>
		</g>
		<g>
			<circle class="st15" cx="187.37" cy="2934.37" r="11.89"/>
		</g>
		<g>
			<circle class="st15" cx="242.87" cy="2989.87" r="11.89"/>
		</g>
		<g>
			<circle class="st15" cx="298.36" cy="3045.37" r="11.89"/>
		</g>
	</g>
	<g class="st16">
		<g>
			<circle class="st15" cx="2868.64" cy="718.06" r="11.89"/>
		</g>
		<g>
			<circle class="st15" cx="2924.14" cy="773.55" r="11.89"/>
		</g>
		<g>
			<circle class="st15" cx="2979.64" cy="829.05" r="11.89"/>
		</g>
		<g>
			<circle class="st15" cx="3035.14" cy="884.55" r="11.89"/>
		</g>
		<g>
			<circle class="st15" cx="3090.63" cy="940.05" r="11.89"/>
		</g>
		<g>
			<circle class="st15" cx="2801.46" cy="785.24" r="11.89"/>
		</g>
		<g>
			<circle class="st15" cx="2856.95" cy="840.74" r="11.89"/>
		</g>
		<g>
			<circle class="st15" cx="2912.45" cy="896.24" r="11.89"/>
		</g>
		<g>
			<circle class="st15" cx="2967.95" cy="951.73" r="11.89"/>
		</g>
		<g>
			<circle class="st15" cx="3023.45" cy="1007.23" r="11.89"/>
		</g>
		<g>
			<circle class="st15" cx="2734.27" cy="852.43" r="11.89"/>
		</g>
		<g>
			<circle class="st15" cx="2789.77" cy="907.93" r="11.89"/>
		</g>
		<g>
			<circle class="st15" cx="2845.27" cy="963.42" r="11.89"/>
		</g>
		<g>
			<circle class="st15" cx="2900.76" cy="1018.92" r="11.89"/>
		</g>
		<g>
			<circle class="st15" cx="2956.26" cy="1074.42" r="11.89"/>
		</g>
		<g>
			<circle class="st15" cx="2667.09" cy="919.61" r="11.89"/>
		</g>
		<g>
			<circle class="st15" cx="2722.58" cy="975.11" r="11.89"/>
		</g>
		<g>
			<circle class="st15" cx="2778.08" cy="1030.61" r="11.89"/>
		</g>
		<g>
			<circle class="st15" cx="2833.58" cy="1086.11" r="11.89"/>
		</g>
		<g>
			<circle class="st15" cx="2889.08" cy="1141.6" r="11.89"/>
		</g>
		<g>
			<circle class="st15" cx="2599.9" cy="986.8" r="11.89"/>
		</g>
		<g>
			<circle class="st15" cx="2655.4" cy="1042.3" r="11.89"/>
		</g>
		<g>
			<circle class="st15" cx="2710.9" cy="1097.79" r="11.89"/>
		</g>
		<g>
			<circle class="st15" cx="2766.39" cy="1153.29" r="11.89"/>
		</g>
		<g>
			<circle class="st15" cx="2821.89" cy="1208.79" r="11.89"/>
		</g>
	</g>
	<g class="st16">
		<g>
			<circle class="st15" cx="687.19" cy="1063.22" r="11.89"/>
		</g>
		<g>
			<circle class="st15" cx="742.69" cy="1118.72" r="11.89"/>
		</g>
		<g>
			<circle class="st15" cx="798.18" cy="1174.22" r="11.89"/>
		</g>
		<g>
			<circle class="st15" cx="853.68" cy="1229.71" r="11.89"/>
		</g>
		<g>
			<circle class="st15" cx="909.18" cy="1285.21" r="11.89"/>
		</g>
		<g>
			<circle class="st15" cx="620" cy="1130.41" r="11.89"/>
		</g>
		<g>
			<circle class="st15" cx="675.5" cy="1185.9" r="11.89"/>
		</g>
		<g>
			<circle class="st15" cx="731" cy="1241.4" r="11.89"/>
		</g>
		<g>
			<circle class="st15" cx="786.49" cy="1296.9" r="11.89"/>
		</g>
		<g>
			<circle class="st15" cx="841.99" cy="1352.4" r="11.89"/>
		</g>
		<g>
			<circle class="st15" cx="552.82" cy="1197.59" r="11.89"/>
		</g>
		<g>
			<circle class="st15" cx="608.31" cy="1253.09" r="11.89"/>
		</g>
		<g>
			<circle class="st15" cx="663.81" cy="1308.59" r="11.89"/>
		</g>
		<g>
			<circle class="st15" cx="719.31" cy="1364.08" r="11.89"/>
		</g>
		<g>
			<circle class="st15" cx="774.81" cy="1419.58" r="11.89"/>
		</g>
		<g>
			<circle class="st15" cx="485.63" cy="1264.78" r="11.89"/>
		</g>
		<g>
			<circle class="st15" cx="541.13" cy="1320.27" r="11.89"/>
		</g>
		<g>
			<circle class="st15" cx="596.63" cy="1375.77" r="11.89"/>
		</g>
		<g>
			<circle class="st15" cx="652.12" cy="1431.27" r="11.89"/>
		</g>
		<g>
			<circle class="st15" cx="707.62" cy="1486.77" r="11.89"/>
		</g>
		<g>
			<circle class="st15" cx="418.45" cy="1331.96" r="11.89"/>
		</g>
		<g>
			<circle class="st15" cx="473.94" cy="1387.46" r="11.89"/>
		</g>
		<g>
			<circle class="st15" cx="529.44" cy="1442.96" r="11.89"/>
		</g>
		<g>
			<circle class="st15" cx="584.94" cy="1498.45" r="11.89"/>
		</g>
		<g>
			<circle class="st15" cx="640.44" cy="1553.95" r="11.89"/>
		</g>
	</g>
	<g class="st16">
		<g>
			<circle class="st15" cx="1955.62" cy="885.82" r="11.89"/>
		</g>
		<g>
			<circle class="st15" cx="2011.12" cy="941.31" r="11.89"/>
		</g>
		<g>
			<circle class="st15" cx="2066.62" cy="996.81" r="11.89"/>
		</g>
		<g>
			<circle class="st15" cx="2122.12" cy="1052.31" r="11.89"/>
		</g>
		<g>
			<circle class="st15" cx="2177.61" cy="1107.81" r="11.89"/>
		</g>
		<g>
			<circle class="st15" cx="1888.44" cy="953" r="11.89"/>
		</g>
		<g>
			<circle class="st15" cx="1943.94" cy="1008.5" r="11.89"/>
		</g>
		<g>
			<circle class="st15" cx="1999.43" cy="1064" r="11.89"/>
		</g>
		<g>
			<circle class="st15" cx="2054.93" cy="1119.49" r="11.89"/>
		</g>
		<g>
			<circle class="st15" cx="2110.43" cy="1174.99" r="11.89"/>
		</g>
	</g>
	<g class="st16">
		<path class="st15" d="M2767.86,158.21l-75.62,75.62C2719.71,211,2745.04,185.68,2767.86,158.21z"/>
		<path class="st15" d="M2793.12,87.81L2793.12,87.81l-134.48,134.48l-0.47,0.47l-0.47,0.47l-89.32,89.32
			c5.96-2.79,11.86-5.68,17.7-8.67l76.6-76.6l0.47-0.47l0,0L2798.1,91.85l0.47-0.47l0,0l1.43-1.43v-9.03l-6.41,6.41L2793.12,87.81z"
			/>
		<path class="st15" d="M2747.97,42.67L2747.97,42.67l-134.48,134.48l-0.47,0.47l-134.96,134.95l-0.47,0.47l-0.47,0.47l-42.76,42.76
			c3.8-0.74,7.58-1.51,11.36-2.33l36.39-36.39l0.47-0.47l0,0l134.48-134.48l0.47-0.47l135.43-135.42l0.47-0.47l0,0L2799.67,0h-9.03
			l-42.2,42.2L2747.97,42.67z"/>
		<path class="st15" d="M2567.88,132.48l-134.96,134.95l-0.47,0.47l-0.47,0.47l-98.46,98.46c3.09-0.05,6.18-0.13,9.26-0.23
			l94.18-94.19l0.47-0.47l0,0l134.48-134.48l0.47-0.47L2707.35,2.04l0.24-0.24l0.23-0.23l0.47-0.47l1.1-1.1h-9.03l-132.01,132.01
			L2567.88,132.48z"/>
		<path class="st15" d="M2523.21,86.87l-0.47,0.47l-134.96,134.95l-0.31,0.31l-0.16,0.16l-0.47,0.47l-134.95,134.96l-0.47,0.47l0,0
			l-3.39,3.39c2.67,0.35,5.35,0.68,8.03,0.99l0.19-0.19l0.16-0.16l0.47-0.47l134.95-134.96l0.47-0.47l0,0l134.48-134.48l0,0
			l0.47-0.47L2619.1,0h-9.03L2523.21,86.87L2523.21,86.87z"/>
		<path class="st15" d="M2726.34,19.16l-0.47,0.47l-135.42,135.43l-0.47,0.47l0,0l-134.95,134.95l-0.47,0.47l0,0l-73.1,73.1
			c3.39-0.34,6.76-0.71,10.13-1.11l67.95-67.95l0.47-0.47l0,0l134.48-134.48l0.47-0.47l0.47-0.47l134.95-134.96l0.47-0.47L2754.53,0
			h-9.03L2726.34,19.16L2726.34,19.16z"/>
		<path class="st15" d="M1935.42,42.67L1935.42,42.67l-82.21,82.21c1.25,1.75,2.52,3.5,3.79,5.24l83.41-83.41l0.47-0.47l0,0
			L1987.12,0h-9.03l-42.2,42.2L1935.42,42.67z"/>
		<path class="st15" d="M1913.79,19.16l-0.47,0.47l-78.27,78.27c1.17,1.84,2.34,3.67,3.53,5.5l79.26-79.26l0.16-0.16L1941.98,0
			h-9.03L1913.79,19.16L1913.79,19.16z"/>
		<path class="st15" d="M2003.61,109.91l-0.47,0.47l-87.77,87.77c1.51,1.5,3.02,3,4.54,4.49l88.21-88.21l0.47-0.47l0,0L2122.54,0
			h-9.03l-109.44,109.44L2003.61,109.91z"/>
		<path class="st15" d="M1958.46,64.77l-0.47,0.47l-85.32,85.32c1.34,1.67,2.69,3.33,4.05,4.98l86.26-86.26l0.47-0.47l0,0L2032.26,0
			h-9.03l-64.3,64.3L1958.46,64.77z"/>
		<path class="st15" d="M2477.59,42.2l-135.43,135.42l-0.47,0.47l0,0l-134.48,134.48l-0.47,0.47l-0.47,0.47l-33.56,33.56
			c2.38,0.64,4.76,1.27,7.15,1.88l31.4-31.4l0.47-0.47l0,0l134.95-134.95l0.47-0.47l0,0l134.48-134.48l0.47-0.47L2528.82,0h-9.03
			l-41.73,41.73L2477.59,42.2z"/>
		<path class="st15" d="M2296.56,132.95L2296.56,132.95l-134.48,134.48l0,0l-0.47,0.47l-56.4,56.4c2.14,0.87,4.29,1.74,6.44,2.59
			l54.47-54.47l0.16-0.16l135.27-135.27l0.47-0.47l0,0L2436.5,2.04l0,0l0.47-0.47l1.57-1.57h-9.03l-132.48,132.48L2296.56,132.95z"
			/>
		<path class="st15" d="M2251.42,87.81L2251.42,87.81l-134.48,134.48l0,0l-0.47,0.47l-72.3,72.3c1.94,1.07,3.89,2.14,5.84,3.19
			l70.97-70.97l0.16-0.16L2256.4,91.85l0.47-0.47l0,0L2348.25,0h-9.03l-87.34,87.34L2251.42,87.81z"/>
		<path class="st15" d="M2455.02,19.63l-0.47,0.47L2319.6,155.05l0,0l-135.42,135.42l-0.47,0.47l0,0l-45.62,45.62
			c2.25,0.76,4.51,1.51,6.78,2.25l43.83-43.83l0.47-0.47l0,0l134.48-134.48l0,0l0.47-0.47l135.42-135.43l0.47-0.47l0,0L2483.68,0
			h-9.03l-19.16,19.16L2455.02,19.63z"/>
		<path class="st15" d="M2545.31,109.91l-0.47,0.47l-134.95,134.96l-0.47,0.47l0,0l-120.13,120.13c2.86,0.17,5.72,0.31,8.59,0.44
			l116.05-116.05l0.47-0.47l0.47-0.47l134.95-134.96l0.47-0.47l0,0L2664.24,0h-9.03l-109.44,109.44L2545.31,109.91z"/>
		<path class="st15" d="M2500.17,64.77l-0.47,0.47l-134.95,134.96l-0.47,0.47l0,0l-134.48,134.48l-0.47,0.47l-20.04,20.04
			c2.52,0.5,5.04,0.99,7.57,1.46l16.52-16.52l0.47-0.47l134.96-134.95l0.47-0.47l0.47-0.47l134.95-134.95l0.47-0.47l0,0L2573.96,0
			h-9.03l-64.3,64.3L2500.17,64.77z"/>
		<path class="st15" d="M2771.49,64.3l-0.47,0.47l-135.42,135.43l-0.47,0.47l0,0l-134.95,134.95l-0.47,0.47l0,0l-5.02,5.02
			c2.79-0.86,5.56-1.75,8.33-2.66c0.24-0.08,0.47-0.16,0.71-0.23c1.44-0.47,2.88-0.95,4.31-1.43l131.62-131.62l0.47-0.47l0.47-0.47
			l134.95-134.95l0.47-0.47l24-24v-9.03L2771.49,64.3L2771.49,64.3z"/>
		<path class="st15" d="M1821.48,75.35l73.31-73.31l0.47-0.47l0.47-0.47l1.1-1.1h-9.03l-69.58,69.58
			C1819.3,71.51,1820.39,73.43,1821.48,75.35z"/>
		<path class="st15" d="M1791.55,15l15-15h-9.03l-8.63,8.63C1789.77,10.76,1790.65,12.88,1791.55,15z"/>
		<path class="st15" d="M1805.78,45.92L1851.69,0h-9.03l-39.85,39.85C1803.79,41.88,1804.78,43.9,1805.78,45.92z"/>
		<path class="st15" d="M2206.27,42.67L2206.27,42.67l-134.48,134.48l0,0l-0.47,0.47l-82.56,82.56c1.76,1.25,3.53,2.49,5.3,3.73
			l81.3-81.3l0,0l0.47-0.47l135.43-135.42l0.47-0.47l0,0L2257.97,0h-9.03l-42.2,42.2L2206.27,42.67z"/>
		<path class="st15" d="M2026.18,132.48l-87.59,87.59c1.59,1.42,3.19,2.83,4.79,4.24l86.85-86.85l0.47-0.47L2165.65,2.04l0.47-0.47
			l0.47-0.47l1.1-1.1h-9.03l-132.01,132.01L2026.18,132.48z"/>
		<path class="st15" d="M1981.04,87.34l-87.64,87.64c1.42,1.59,2.85,3.16,4.29,4.73l87.38-87.38l0.47-0.47L2077.4,0h-9.03
			l-86.87,86.87L1981.04,87.34z"/>
		<path class="st15" d="M2183.7,20.1L2183.7,20.1l-134.95,134.96l-0.47,0.47l0,0l-85.24,85.23c1.67,1.34,3.35,2.67,5.04,3.99
			l84.71-84.71l0.47-0.47l0.47-0.47l134.95-134.96l0.47-0.47l0,0L2212.83,0h-9.03l-19.63,19.63L2183.7,20.1z"/>
		<path class="st15" d="M2274.46,109.91l-0.47,0.47l-134.95,134.96l-0.47,0.47l0,0l-64.63,64.63c2.04,0.98,4.08,1.94,6.13,2.9
			l63.01-63.01l0.47-0.47l0.47-0.47l134.95-134.96l0.47-0.47l0,0L2393.39,0h-9.03l-109.44,109.44L2274.46,109.91z"/>
		<path class="st15" d="M2229.31,64.77l-0.47,0.47l-134.95,134.96l-0.47,0.47l0,0l-77.63,77.63c1.85,1.16,3.7,2.32,5.56,3.46
			l76.58-76.58l0.47-0.47l0.47-0.47l134.95-134.95l0.47-0.47l0,0L2303.11,0h-9.03l-64.3,64.3L2229.31,64.77z"/>
		<path class="st15" d="M2690.11,2356.46l-0.47,0.47l-135.42,135.43l-0.47,0.47h0l-74.03,74.03c-0.32,3.29-0.61,6.59-0.88,9.9
			l79.42-79.42l0.47-0.47l0.47-0.47l134.95-134.96l0.47-0.47L2800,2255.6v-9.03L2690.11,2356.46L2690.11,2356.46z"/>
		<path class="st15" d="M2667.07,2334.36l-134.96,134.95l-0.47,0.47l-0.47,0.47l-43.9,43.9c-0.7,3.66-1.35,7.33-1.98,11.01
			l50.87-50.87l0.47-0.47h0l134.48-134.48l0.47-0.47l0.47-0.47L2800,2210.46v-9.03l-132.46,132.46L2667.07,2334.36z"/>
		<path class="st15" d="M2780.39,2175.9l-0.47,0.47l-134.96,134.96l-0.31,0.31l-0.16,0.16l-0.47,0.47l-134.95,134.96l-0.47,0.47h0
			l-6.47,6.47c-1.3,4.24-2.54,8.49-3.74,12.77l14.73-14.73l0.31-0.31l0.16-0.16l0.47-0.47l134.95-134.96l0.47-0.47h0l134.48-134.48
			h0l0.47-0.47l15.56-15.56v-9.03L2780.39,2175.9L2780.39,2175.9z"/>
		<path class="st15" d="M2604.34,2270.69L2604.34,2270.69l124.49-124.49c-11.92,8.16-23.52,16.74-34.78,25.75l-90.76,90.76
			c-1.03,1.29-2.06,2.57-3.07,3.86c-0.14,0.18-0.27,0.35-0.41,0.53c-7.74,9.87-15.17,20.01-22.26,30.39l26.32-26.33L2604.34,2270.69
			z"/>
		<path class="st15" d="M2756.88,2154.27L2756.88,2154.27l-134.48,134.48l-0.47,0.47l-91.89,91.89c-2.48,5.37-4.89,10.78-7.21,16.23
			l103.14-103.14l0.47-0.47l134.96-134.95l0.24-0.24l0.24-0.23l0.47-0.47l37.66-37.66v-9.03l-42.65,42.65L2756.88,2154.27z"/>
		<path class="st15" d="M2711.74,2379.97L2711.74,2379.97l-134.48,134.48h0l-0.47,0.47l-99.73,99.73c-0.04,2.85-0.07,5.7-0.07,8.56
			c0,0.18,0,0.35,0,0.53l104.31-104.31l0,0l135.43-135.42l0.47-0.47h0l82.81-82.81v-9.03l-87.79,87.79L2711.74,2379.97z"/>
		<path class="st15" d="M2734.78,2402.08l-135.43,135.42l-0.47,0.47h0l-120.82,120.82c0.17,2.82,0.36,5.64,0.57,8.46l125.23-125.23
			l0.47-0.47h0l134.48-134.48h0l0.47-0.47l60.7-60.71v-9.03l-64.75,64.75L2734.78,2402.08z"/>
		<path class="st15" d="M2779.92,2447.22l-135.43,135.42l-0.47,0.47h0l-134.48,134.48l-0.47,0.47l-0.47,0.47l-20.08,20.08
			c0.51,2.49,1.03,4.98,1.56,7.47l23.5-23.5l0.47-0.47h0l134.95-134.95l0.47-0.47h0l134.48-134.48h0l0.47-0.47l15.56-15.56v-9.03
			l-19.61,19.61L2779.92,2447.22z"/>
		<polygon class="st15" points="2735.25,2672.46 2734.78,2672.93 2607.71,2800 2616.73,2800 2738.82,2677.91 2738.83,2677.91 
			2739.29,2677.44 2800,2616.73 2800,2607.71 2735.25,2672.46 		"/>
		<polygon class="st15" points="2690.11,2627.31 2689.64,2627.78 2554.68,2762.74 2554.21,2763.21 2553.74,2763.68 2517.42,2800 
			2526.45,2800 2558.73,2767.72 2559.2,2767.25 2559.2,2767.25 2693.68,2632.77 2693.68,2632.77 2694.15,2632.3 2800,2526.45 
			2800,2517.42 2690.11,2627.31 		"/>
		<path class="st15" d="M2667.54,2604.74l-0.47,0.47l-135.42,135.43l-0.16,0.16l-34.32,34.32c0.64,2.36,1.3,4.71,1.97,7.06
			l36.55-36.55h0l0.47-0.47l134.95-134.96l0,0l0.47-0.47L2800,2481.31v-9.03L2667.54,2604.74L2667.54,2604.74z"/>
		<path class="st15" d="M2756.88,2425.12L2756.88,2425.12L2622.4,2559.6h0l-0.47,0.47L2486.5,2695.5l-0.16,0.16l-4.3,4.3
			c0.35,2.65,0.72,5.29,1.11,7.92l7.39-7.39h0l0.47-0.47l135.42-135.43l0.16-0.16l135.27-135.27l0.47-0.47h0l37.66-37.66V2382
			l-42.65,42.65L2756.88,2425.12z"/>
		<polygon class="st15" points="2711.74,2650.83 2711.74,2650.83 2577.26,2785.31 2577.25,2785.31 2576.78,2785.78 2562.56,2800 
			2571.59,2800 2580.83,2790.76 2580.83,2790.76 2581.3,2790.29 2716.25,2655.34 2716.49,2655.1 2716.72,2654.87 2717.19,2654.4 
			2800,2571.59 2800,2562.56 2712.21,2650.35 		"/>
		<polygon class="st15" points="2752.16,2800 2800,2752.16 2800,2743.13 2743.13,2800 		"/>
		<polygon class="st15" points="2756.88,2695.97 2756.88,2695.97 2652.85,2800 2661.88,2800 2761.4,2700.48 2761.63,2700.25 
			2761.87,2700.01 2762.34,2699.54 2800,2661.88 2800,2652.85 2757.35,2695.5 		"/>
		<polygon class="st15" points="2780.39,2717.6 2779.92,2718.07 2697.99,2800 2707.02,2800 2784.44,2722.58 2784.91,2722.11 
			2800,2707.02 2800,2697.99 2780.39,2717.6 		"/>
		<polygon class="st15" points="2797.3,2800 2800,2797.3 2800,2788.27 2788.27,2800 		"/>
		<path class="st15" d="M132.19,76.79L132.19,76.79l0.47-0.47l56.92-56.93c0.1-3.08,0.18-6.17,0.23-9.26l-62.14,62.14l-0.47,0.47
			l0,0L0,199.95v9.03L131.72,77.26L132.19,76.79z"/>
		<path class="st15" d="M18.87,235.25l0.47-0.47L154.76,99.36l0.16-0.16l31.01-31.01c0.4-3.37,0.77-6.75,1.11-10.13l-36.31,36.31
			l0,0l-0.47,0.47L14.82,230.27l-0.16,0.16L0,245.09v9.03L18.87,235.25L18.87,235.25z"/>
		<polygon class="st15" points="109.62,54.22 163.84,0 154.81,0 105.58,49.23 105.58,49.23 105.11,49.7 0,154.81 0,163.84 
			109.62,54.22 		"/>
		<polygon class="st15" points="64.48,9.07 64.95,8.6 64.95,8.6 73.55,0 64.53,0 60.44,4.09 59.97,4.56 0,64.53 0,73.55 64.01,9.54 
					"/>
		<polygon class="st15" points="19.39,0 0,19.39 0,28.41 28.41,0 		"/>
		<polygon class="st15" points="86.89,31.8 87.05,31.65 87.52,31.18 118.7,0 109.67,0 82.54,27.13 82.07,27.6 82.07,27.6 0,109.67 
			0,118.7 86.58,32.12 		"/>
		<path class="st15" d="M42.38,256.88L42.38,256.88l134.55-134.55c0.05-0.22,0.09-0.44,0.14-0.66c0.06-0.26,0.11-0.52,0.16-0.78
			c0.7-3.29,1.38-6.6,2.02-9.91l-6.44,6.44l-0.47,0.47l0,0L37.39,252.84l-0.47,0.47l0,0L0,290.24v9.03l41.91-41.91L42.38,256.88z"/>
		<path class="st15" d="M87.52,302.03L87.52,302.03l39.34-39.34c2.99-5.84,5.88-11.74,8.67-17.7l-52.53,52.53l-0.47,0.47h0
			l-0.47,0.47L0,380.52v9.03l87.05-87.05L87.52,302.03z"/>
		<path class="st15" d="M64.01,280.4l0.47-0.47l95.3-95.3c1.49-4.43,2.93-8.88,4.32-13.35L59.97,275.41l-0.16,0.16L0,335.38v9.03
			L64.01,280.4L64.01,280.4z"/>
		<path class="st15" d="M56.81,368.85L0,425.66v2.48C20.3,409.74,39.3,389.93,56.81,368.85z"/>
		<path class="st15" d="M10.56,1859.11l0.47-0.47l134.96-134.95l0.31-0.31l0.16-0.16l0.47-0.47l42.97-42.97
			c0.01-0.89,0.02-1.77,0.02-2.66c0-2.11-0.02-4.22-0.06-6.32l-47.91,47.91l-0.47,0.47h0L6.99,1853.66h0l-0.47,0.47L0,1860.65v9.03
			L10.56,1859.11L10.56,1859.11z"/>
		<path class="st15" d="M34.08,1880.74L34.08,1880.74l134.48-134.48l0.47-0.47l0.47-0.47h0l16.87-16.87
			c0.48-3.42,0.9-6.86,1.28-10.31l-22.67,22.67l-0.47,0.47L29.56,1876.23l-0.31,0.31l-0.16,0.16l-0.47,0.47L0,1905.79v9.03
			l33.61-33.61L34.08,1880.74z"/>
		<path class="st15" d="M56.18,1903.78l0.16-0.16l0.31-0.31h0l116.74-116.74c1.31-4.21,2.54-8.46,3.7-12.73L52.13,1898.8l-0.47,0.47
			L0,1950.93v9.03l55.71-55.71L56.18,1903.78z"/>
		<path class="st15" d="M78.28,1926.83L78.28,1926.83l0.47-0.47l57.29-57.29c4.17-6.82,8.12-13.78,11.85-20.87l-73.18,73.18l0,0
			l-0.47,0.47L0,1996.07v3.45c4.5-2.5,8.95-5.08,13.34-7.76L78.28,1926.83z"/>
		<path class="st15" d="M33.51,1375.72L0,1409.23v9.03l38.77-38.77C37.03,1378.22,35.27,1376.97,33.51,1375.72z"/>
		<path class="st15" d="M58.98,1395.39L0,1454.37v9.03l63.83-63.83C62.23,1398.16,60.61,1396.77,58.98,1395.39z"/>
		<path class="st15" d="M6,1358.09l-6,6v9.03l11.67-11.67C9.79,1360.31,7.9,1359.2,6,1358.09z"/>
		<path class="st15" d="M101.47,1677.92l79.93-79.93c-0.54-2.46-1.1-4.9-1.69-7.34l-82.44,82.44h0l-0.47,0.47L0,1770.37v9.03
			l101.32-101.32L101.47,1677.92z"/>
		<path class="st15" d="M56.33,1632.78l102.97-102.97c-0.91-2.09-1.85-4.16-2.8-6.23L52.13,1627.95h0l-0.47,0.47L0,1680.08v9.03
			l56.18-56.18L56.33,1632.78z"/>
		<path class="st15" d="M11.03,1587.79l116.26-116.26c-1.21-1.8-2.44-3.58-3.68-5.35L6.99,1582.81h0l-0.47,0.47L0,1589.8v9.03
			L11.03,1587.79L11.03,1587.79z"/>
		<path class="st15" d="M34.08,1609.89L34.08,1609.89l110.32-110.33c-1.07-1.94-2.15-3.87-3.25-5.78L29.09,1605.85l-0.47,0.47h0
			L0,1634.94v9.03l33.61-33.61L34.08,1609.89z"/>
		<path class="st15" d="M104.03,1440.62L0,1544.66v9.03l108.11-108.11C106.77,1443.91,105.41,1442.26,104.03,1440.62z"/>
		<path class="st15" d="M82.48,1417.03L0,1499.52v9.03l86.95-86.95C85.47,1420.06,83.98,1418.54,82.48,1417.03z"/>
		<path class="st15" d="M79.22,1655.04L79.22,1655.04l92.53-92.53c-0.74-2.26-1.5-4.51-2.28-6.75l-95.23,95.23l-0.47,0.47h0
			L0,1725.22v9.03l78.75-78.75L79.22,1655.04z"/>
		<path class="st15" d="M123.89,1700.65l0.47-0.47h0l63.37-63.37c-0.29-2.7-0.61-5.38-0.97-8.06l-66.92,66.92l-0.47,0.47L0,1815.51
			v9.03l123.42-123.42L123.89,1700.65z"/>
		<path class="st15" d="M825.1,2723.44c-10.26,10.26-19.77,20.97-28.6,32.05l60.65-60.65
			C846.07,2703.67,835.35,2713.18,825.1,2723.44z"/>
		<path class="st15" d="M955.05,2732.37l0.47-0.47l118.42-118.42c-3.2,0.15-6.4,0.33-9.59,0.57l-113.34,113.34l-0.16,0.16
			L878.39,2800h9.03L955.05,2732.37L955.05,2732.37z"/>
		<path class="st15" d="M910.38,2686.76l0.47-0.47l49.84-49.84c-5,1.85-9.97,3.81-14.91,5.88l-39.91,39.91l-0.47,0.47h0L788.11,2800
			h9.03l112.77-112.77L910.38,2686.76z"/>
		<path class="st15" d="M932.95,2709.33l0.47-0.47h0l89.5-89.5c-3.76,0.69-7.52,1.43-11.27,2.24l-82.75,82.75l-0.47,0.47
			L833.25,2800h9.03l90.2-90.2L932.95,2709.33z"/>
		<path class="st15" d="M978.56,2754L978.56,2754l134.95-134.95l0.47-0.47h0l4.55-4.55c-2.84-0.2-5.68-0.37-8.52-0.51l-1.02,1.02
			l-0.47,0.47h0l-134.48,134.48l-0.47,0.47l-0.47,0.47L923.53,2800h9.03l45.53-45.53L978.56,2754z"/>
		<path class="st15" d="M1000.19,2777.51l0.47-0.47l134.95-134.96l0,0l0.47-0.47l22.55-22.55c-2.57-0.46-5.14-0.9-7.72-1.31
			l-18.87,18.87l0,0l-0.47,0.47l-135.42,135.43l-0.16,0.16L968.67,2800h9.03L1000.19,2777.51L1000.19,2777.51z"/>
		<path class="st15" d="M1181.7,2686.29L1181.7,2686.29l47.33-47.34c-2.17-0.85-4.35-1.68-6.54-2.49l-45.78,45.78l-0.47,0.47l0,0
			L1058.96,2800h9.03l113.24-113.24L1181.7,2686.29z"/>
		<path class="st15" d="M1400.7,2774.25l-25.75,25.75h9.03l20.38-20.38C1403.15,2777.83,1401.94,2776.03,1400.7,2774.25z"/>
		<path class="st15" d="M1294.08,2799.61l70-70c-1.47-1.53-2.96-3.06-4.46-4.57l-69.58,69.58h0l-0.47,0.47l-4.9,4.9h9.03
			L1294.08,2799.61L1294.08,2799.61z"/>
		<path class="st15" d="M1249.41,2754L1249.41,2754l66.75-66.75c-1.73-1.29-3.47-2.55-5.22-3.81l-66.04,66.04l-0.47,0.47h0
			l-0.47,0.47l-49.57,49.58h9.03l45.53-45.53L1249.41,2754z"/>
		<path class="st15" d="M1203.8,2709.33l0.24-0.24l0.23-0.23l56.02-56.02c-2.01-1.01-4.04-1.99-6.07-2.96l-54.46,54.46l-0.47,0.47
			L1104.1,2800h9.03l90.2-90.2L1203.8,2709.33z"/>
		<path class="st15" d="M1023.7,2799.14L1023.7,2799.14l134.95-134.95l0.47-0.47h0l36.15-36.15c-2.35-0.67-4.71-1.33-7.08-1.95
			l-34.06,34.06l-0.47,0.47h0l-134.48,134.48l-0.47,0.47l-0.47,0.47l-4.43,4.43h9.03l0.39-0.39L1023.7,2799.14z"/>
		<path class="st15" d="M1271.51,2777.04L1271.51,2777.04l0.47-0.47l69.08-69.08c-1.6-1.41-3.2-2.83-4.81-4.22l-69.25,69.25
			l-0.47,0.47h0l-27,27h9.03l22.49-22.49L1271.51,2777.04z"/>
		<path class="st15" d="M1226.21,2732.05l0.16-0.16l0.47-0.47l62.43-62.43c-1.87-1.15-3.73-2.3-5.62-3.41l-61.8,61.8l-0.47,0.47h0
			l-72.15,72.15h9.03l67.63-67.63L1226.21,2732.05z"/>
		<path class="st15" d="M1381.11,2748.7l-51.3,51.3h9.03l46.35-46.35C1383.85,2751.99,1382.48,2750.34,1381.11,2748.7z"/>
	</g>
</g>
</svg>
